<svg width="39" height="39" viewBox="0 0 39 39" fill="none" xmlns="http://www.w3.org/2000/svg">
<path fill-rule="evenodd" clip-rule="evenodd" d="M19.4274 5.37842C11.416 5.37842 4.98828 11.7202 4.98828 19.4618C4.98828 27.2033 11.416 33.5451 19.4274 33.5451C27.4388 33.5451 33.8666 27.2033 33.8666 19.4618C33.8666 11.7202 27.4388 5.37842 19.4274 5.37842ZM1.48828 19.4618C1.48828 9.71428 9.55678 1.87842 19.4274 1.87842C29.2981 1.87842 37.3666 9.71428 37.3666 19.4618C37.3666 29.2092 29.2981 37.0451 19.4274 37.0451C9.55678 37.0451 1.48828 29.2092 1.48828 19.4618ZM19.4275 11.3787C20.394 11.3787 21.1775 12.1622 21.1775 13.1287V19.462C21.1775 20.4285 20.394 21.212 19.4275 21.212C18.461 21.212 17.6775 20.4285 17.6775 19.462V13.1287C17.6775 12.1622 18.461 11.3787 19.4275 11.3787ZM19.4275 24.0448C18.461 24.0448 17.6775 24.8283 17.6775 25.7948C17.6775 26.7613 18.461 27.5448 19.4275 27.5448H19.4437C20.4102 27.5448 21.1937 26.7613 21.1937 25.7948C21.1937 24.8283 20.4102 24.0448 19.4437 24.0448H19.4275Z" fill="white"/>
</svg>
