<svg width="18" height="18" viewBox="0 0 18 18" fill="none" xmlns="http://www.w3.org/2000/svg">
<path fill-rule="evenodd" clip-rule="evenodd" d="M9.70711 4.45711C10.0976 4.06658 10.0976 3.43342 9.70711 3.04289C9.31658 2.65237 8.68342 2.65237 8.29289 3.04289L3.04395 8.29183C3.04069 8.29509 3.03744 8.29837 3.03422 8.30168C2.85836 8.4819 2.75 8.7283 2.75 9C2.75 9.13559 2.77699 9.26488 2.82588 9.38278C2.87468 9.50073 2.94702 9.61123 3.04289 9.70711L8.29289 14.9571C8.68342 15.3476 9.31658 15.3476 9.70711 14.9571C10.0976 14.5666 10.0976 13.9334 9.70711 13.5429L6.16421 10H14.25C14.8023 10 15.25 9.55228 15.25 9C15.25 8.44771 14.8023 8 14.25 8H6.16421L9.70711 4.45711Z" fill="#E82A45"/>
</svg>
