<svg width="24" height="24" viewBox="0 0 24 24" fill="none" xmlns="http://www.w3.org/2000/svg">
<path fill-rule="evenodd" clip-rule="evenodd" d="M12.7071 5.70723C13.0976 5.3167 13.0976 4.68354 12.7071 4.29302C12.3166 3.90249 11.6834 3.90249 11.2929 4.29302L4.29395 11.292C4.29068 11.2952 4.28742 11.2985 4.28419 11.3018C4.10835 11.4821 4 11.7284 4 12.0001C4 12.1357 4.02699 12.265 4.07588 12.3829C4.12468 12.5009 4.19702 12.6114 4.29289 12.7072L11.2929 19.7072C11.6834 20.0978 12.3166 20.0978 12.7071 19.7072C13.0976 19.3167 13.0976 18.6835 12.7071 18.293L7.41421 13.0001H19C19.5523 13.0001 20 12.5524 20 12.0001C20 11.4478 19.5523 11.0001 19 11.0001H7.41422L12.7071 5.70723Z" fill="#4A4D61"/>
</svg>
