<svg width="18" height="18" viewBox="0 0 18 18" fill="none" xmlns="http://www.w3.org/2000/svg">
<path fill-rule="evenodd" clip-rule="evenodd" d="M9.70712 3.04289C9.31659 2.65237 8.68343 2.65237 8.2929 3.04289C7.90238 3.43342 7.90238 4.06658 8.2929 4.45711L11.8358 8H3.75C3.19772 8 2.75 8.44771 2.75 9C2.75 9.55228 3.19772 10 3.75 10H11.8358L8.2929 13.5429C7.90238 13.9334 7.90238 14.5666 8.2929 14.9571C8.68343 15.3476 9.31659 15.3476 9.70712 14.9571L14.9571 9.70711C15.056 9.60818 15.1299 9.49368 15.1787 9.3715C15.22 9.26846 15.2446 9.15696 15.2492 9.04032C15.2548 8.90024 15.2311 8.75921 15.1782 8.62719C15.1294 8.5055 15.0557 8.39147 14.9571 8.29289L9.70712 3.04289Z" fill="#4A4D61"/>
</svg>
