<svg width="18" height="18" viewBox="0 0 18 18" fill="none" xmlns="http://www.w3.org/2000/svg">
<path fill-rule="evenodd" clip-rule="evenodd" d="M2.64646 2.64645C2.74022 2.55268 2.8674 2.5 3.00001 2.5H9.75001C9.88262 2.5 10.0098 2.55268 10.1036 2.64645C10.1973 2.74022 10.25 2.86739 10.25 3V3.75C10.25 4.30228 10.6977 4.75 11.25 4.75C11.8023 4.75 12.25 4.30228 12.25 3.75V3C12.25 2.33696 11.9866 1.70107 11.5178 1.23223C11.0489 0.763392 10.4131 0.5 9.75001 0.5H3.00001C2.33697 0.5 1.70108 0.763392 1.23224 1.23223C0.763401 1.70107 0.50001 2.33696 0.50001 3V9.75C0.50001 10.413 0.763402 11.0489 1.23224 11.5178C1.70108 11.9866 2.33697 12.25 3.00001 12.25H3.75001C4.30229 12.25 4.75001 11.8023 4.75001 11.25C4.75001 10.6977 4.30229 10.25 3.75001 10.25H3.00001C2.8674 10.25 2.74022 10.1973 2.64646 10.1036C2.55269 10.0098 2.50001 9.88261 2.50001 9.75V3C2.50001 2.86739 2.55269 2.74021 2.64646 2.64645ZM7.75002 8.25C7.75002 7.97386 7.97388 7.75 8.25002 7.75H15C15.2762 7.75 15.5 7.97386 15.5 8.25V15C15.5 15.2761 15.2762 15.5 15 15.5H8.25002C7.97388 15.5 7.75002 15.2761 7.75002 15V8.25ZM8.25002 5.75C6.86931 5.75 5.75002 6.86929 5.75002 8.25V15C5.75002 16.3807 6.86931 17.5 8.25002 17.5H15C16.3807 17.5 17.5 16.3807 17.5 15V8.25C17.5 6.86929 16.3807 5.75 15 5.75H8.25002Z" fill="#4A4D61"/>
</svg>
