<svg width="24" height="24" viewBox="0 0 24 24" fill="none" xmlns="http://www.w3.org/2000/svg">
<path fill-rule="evenodd" clip-rule="evenodd" d="M3.2929 3.29314C3.48044 3.1056 3.73479 3.00024 4.00001 3.00024H13C13.2652 3.00024 13.5196 3.1056 13.7071 3.29314C13.8947 3.48067 14 3.73503 14 4.00024V5.00024C14 5.55253 14.4477 6.00024 15 6.00024C15.5523 6.00024 16 5.55253 16 5.00024V4.00024C16 3.20459 15.6839 2.44153 15.1213 1.87892C14.5587 1.31631 13.7957 1.00024 13 1.00024H4.00001C3.20436 1.00024 2.4413 1.31631 1.87869 1.87892C1.31608 2.44153 1.00001 3.20459 1.00001 4.00024V13.0002C1.00001 13.7959 1.31608 14.559 1.87869 15.1216C2.4413 15.6842 3.20436 16.0002 4.00001 16.0002H5.00001C5.5523 16.0002 6.00001 15.5525 6.00001 15.0002C6.00001 14.448 5.5523 14.0002 5.00001 14.0002H4.00001C3.7348 14.0002 3.48044 13.8949 3.2929 13.7074C3.10537 13.5198 3.00001 13.2655 3.00001 13.0002V4.00024C3.00001 3.73503 3.10537 3.48067 3.2929 3.29314ZM10 11.0002C10 10.448 10.4477 10.0002 11 10.0002H20C20.5523 10.0002 21 10.448 21 11.0002V20.0002C21 20.5525 20.5523 21.0002 20 21.0002H11C10.4477 21.0002 10 20.5525 10 20.0002V11.0002ZM11 8.00024C9.34317 8.00024 8.00002 9.34339 8.00002 11.0002V20.0002C8.00002 21.6571 9.34317 23.0002 11 23.0002H20C21.6569 23.0002 23 21.6571 23 20.0002V11.0002C23 9.34339 21.6569 8.00024 20 8.00024H11Z" fill="#E82A45"/>
</svg>
