<svg width="18" height="18" viewBox="0 0 18 18" fill="none" xmlns="http://www.w3.org/2000/svg">
<path fill-rule="evenodd" clip-rule="evenodd" d="M9 2.00003C9.55228 2.00003 10 2.44775 10 3.00003V15C10 15.5523 9.55228 16 9 16C8.44772 16 8 15.5523 8 15V3.00003C8 2.44775 8.44772 2.00003 9 2.00003ZM13.5 6.50003C14.0523 6.50003 14.5 6.94775 14.5 7.50003V15C14.5 15.5523 14.0523 16 13.5 16C12.9477 16 12.5 15.5523 12.5 15V7.50003C12.5 6.94775 12.9477 6.50003 13.5 6.50003ZM5.5 10.5C5.5 9.94774 5.05228 9.50003 4.5 9.50003C3.94772 9.50003 3.5 9.94774 3.5 10.5V15C3.5 15.5523 3.94772 16 4.5 16C5.05228 16 5.5 15.5523 5.5 15V10.5Z" fill="#E82A45"/>
</svg>
