<svg width="24" height="24" viewBox="0 0 24 24" fill="none" xmlns="http://www.w3.org/2000/svg">
<path fill-rule="evenodd" clip-rule="evenodd" d="M10.5021 1.40273C10.9577 1.14023 11.4742 1.00204 12 1.00204C12.5258 1.00204 13.0424 1.14024 13.4979 1.40276L13.5 1.40397L20.4961 5.40175L20.5 5.40396C20.87 5.61758 21.1891 5.90715 21.4369 6.25236C21.4973 6.31273 21.5508 6.38188 21.5956 6.45927C21.6342 6.52593 21.6642 6.59519 21.686 6.66578C21.8917 7.07926 21.9995 7.53547 22 7.99897V7.99999V16V16.001C21.9995 16.5271 21.8606 17.0438 21.5973 17.4993C21.334 17.9547 20.9556 18.333 20.5 18.596L20.4961 18.5982L13.5 22.596L13.4978 22.5973C13.1807 22.78 12.834 22.9025 12.4752 22.9601C12.3339 23.0366 12.172 23.08 12 23.08C11.828 23.08 11.6661 23.0366 11.5248 22.9601C11.166 22.9025 10.8193 22.78 10.5022 22.5973L10.5 22.596L3.50386 18.5982L3.5 18.596C3.04439 18.333 2.66597 17.9547 2.40269 17.4993C2.13941 17.0438 2.00054 16.5271 2 16.001V16V7.99999V7.99897C2.00048 7.53549 2.10832 7.07929 2.31401 6.66583C2.33581 6.59522 2.36582 6.52595 2.40439 6.45927C2.44917 6.38186 2.50273 6.31271 2.56309 6.25234C2.81095 5.90714 3.13002 5.61757 3.5 5.40397L3.50386 5.40174L3.50386 5.40175L10.5021 1.40273ZM13 20.5782L19.5 16.864L19.5016 16.8631C19.6527 16.7754 19.7783 16.6497 19.8658 16.4984C19.9535 16.3466 19.9998 16.1743 20 15.999V8.53753L13 12.5868V20.5782ZM11 12.5868V20.5782L4.5 16.864L4.49842 16.8631C4.34726 16.7754 4.22169 16.6497 4.13423 16.4984C4.04654 16.3467 4.00026 16.1746 4 15.9994V8.53753L11 12.5868ZM12.5039 3.13824L18.961 6.82803L12 10.8547L5.03898 6.82803L11.4961 3.13824L11.4961 3.13825L11.5 3.13602C11.652 3.04825 11.8245 3.00204 12 3.00204C12.1755 3.00204 12.348 3.04825 12.5 3.13602L12.5 3.13603L12.5039 3.13824Z" fill="#4A4D61"/>
</svg>
