<svg width="24" height="24" viewBox="0 0 24 24" fill="none" xmlns="http://www.w3.org/2000/svg">
<path fill-rule="evenodd" clip-rule="evenodd" d="M10.5021 1.40276C10.9577 1.14026 11.4742 1.00208 12 1.00208C12.5258 1.00208 13.0424 1.14027 13.4979 1.4028L13.5 1.404L20.4961 5.40178L20.5 5.40399C20.87 5.61761 21.1891 5.90718 21.4369 6.25239C21.4973 6.31276 21.5508 6.38191 21.5956 6.4593C21.6342 6.52596 21.6642 6.59522 21.686 6.66581C21.8917 7.07929 21.9995 7.5355 22 7.999V8.00002V16V16.0011C21.9995 16.5271 21.8606 17.0438 21.5973 17.4993C21.334 17.9548 20.9556 18.333 20.5 18.5961L20.4961 18.5983L13.5 22.5961L13.4978 22.5973C13.1807 22.78 12.834 22.9025 12.4752 22.9601C12.3339 23.0366 12.172 23.08 12 23.08C11.828 23.08 11.6661 23.0366 11.5248 22.9601C11.166 22.9025 10.8193 22.7801 10.5022 22.5973L10.5 22.5961L3.50386 18.5983L3.5 18.5961C3.04439 18.333 2.66597 17.9548 2.40269 17.4993C2.13941 17.0438 2.00054 16.5271 2 16.0011V16V8.00002V7.999C2.00048 7.53552 2.10832 7.07932 2.31401 6.66586C2.33581 6.59525 2.36582 6.52598 2.40439 6.4593C2.44917 6.3819 2.50273 6.31274 2.56309 6.25237C2.81095 5.90717 3.13002 5.6176 3.5 5.404L3.50386 5.40177L3.50386 5.40178L10.5021 1.40276ZM13 20.5783L19.5 16.864L19.5016 16.8631C19.6527 16.7754 19.7783 16.6497 19.8658 16.4984C19.9535 16.3466 19.9998 16.1744 20 15.999V8.53756L13 12.5868V20.5783ZM11 12.5868V20.5783L4.5 16.864L4.49842 16.8631C4.34726 16.7754 4.22169 16.6497 4.13423 16.4984C4.04654 16.3467 4.00026 16.1746 4 15.9994V8.53756L11 12.5868ZM12.5039 3.13827L18.961 6.82806L12 10.8548L5.03898 6.82806L11.4961 3.13827L11.4961 3.13828L11.5 3.13605C11.652 3.04828 11.8245 3.00208 12 3.00208C12.1755 3.00208 12.348 3.04828 12.5 3.13605L12.5 3.13606L12.5039 3.13827Z" fill="#E82A45"/>
</svg>
