<svg width="17" height="17" viewBox="0 0 17 17" fill="none" xmlns="http://www.w3.org/2000/svg">
<path fill-rule="evenodd" clip-rule="evenodd" d="M11.8548 0.750643C10.7801 0.741305 9.74473 1.15443 8.9717 1.90105L8.97164 1.90099L8.96351 1.90908L7.82644 3.03954C7.51573 3.34844 7.51427 3.85072 7.82317 4.16143C8.13207 4.47214 8.63436 4.4736 8.94506 4.1647L10.0778 3.03856C10.5512 2.5833 11.1841 2.33148 11.841 2.33719C12.4996 2.34291 13.1297 2.60711 13.5955 3.07288C14.0612 3.53865 14.3254 4.16872 14.3312 4.82739C14.3369 5.48391 14.0853 6.1165 13.6305 6.58979L11.6525 8.56784L11.6524 8.56794C11.3977 8.82271 11.0912 9.01972 10.7537 9.14562C10.4162 9.27152 10.0556 9.32337 9.69627 9.29763C9.33696 9.2719 8.98739 9.16919 8.67127 8.99648C8.35515 8.82377 8.07987 8.58509 7.8641 8.29664C7.60167 7.9458 7.10452 7.87413 6.75368 8.13656C6.40284 8.39899 6.33117 8.89614 6.5936 9.24698C6.94565 9.71762 7.39479 10.107 7.91057 10.3888C8.42634 10.6706 8.99669 10.8382 9.58293 10.8802C10.1692 10.9222 10.7576 10.8376 11.3082 10.6322C11.8589 10.4268 12.3589 10.1054 12.7744 9.68974L12.7745 9.68964L14.7576 7.70649L14.7577 7.70657L14.7673 7.69665C15.5139 6.92362 15.927 5.88828 15.9177 4.8136C15.9084 3.73893 15.4773 2.71092 14.7174 1.95098C13.9574 1.19104 12.9294 0.759982 11.8548 0.750643ZM7.51951 5.34104C6.93327 5.29906 6.34486 5.38364 5.79419 5.58906C5.24357 5.79446 4.74355 6.11586 4.32805 6.53148L4.32795 6.53159L2.3448 8.51474L2.34471 8.51465L2.33513 8.52457C1.58852 9.2976 1.17539 10.3329 1.18473 11.4076C1.19406 12.4823 1.62512 13.5103 2.38506 14.2702C3.145 15.0302 4.17301 15.4612 5.24768 15.4706C6.32236 15.4799 7.3577 15.0668 8.13073 14.3202L8.13082 14.3203L8.14057 14.3105L9.27102 13.1801C9.58083 12.8702 9.58083 12.368 9.27102 12.0582C8.96122 11.7484 8.45893 11.7484 8.14912 12.0582L7.02387 13.1834C6.55058 13.6382 5.918 13.8897 5.26147 13.884C4.6028 13.8783 3.97273 13.6141 3.50696 13.1483C3.04119 12.6826 2.77699 12.0525 2.77127 11.3938C2.76556 10.7373 3.01711 10.1047 3.47191 9.63143L5.44995 7.65338L5.45005 7.65328C5.70472 7.39852 6.01121 7.2015 6.34872 7.0756C6.68622 6.9497 7.04686 6.89786 7.40617 6.92359C7.76547 6.94933 8.11504 7.05203 8.43116 7.22474C8.74729 7.39745 9.02257 7.63613 9.23833 7.92459C9.50076 8.27543 9.99792 8.3471 10.3488 8.08467C10.6996 7.82224 10.7713 7.32509 10.5088 6.97425C10.1568 6.50361 9.70765 6.11419 9.19187 5.83239C8.67609 5.5506 8.10574 5.38303 7.51951 5.34104Z" fill="#5C5D82"/>
</svg>
