<svg width="16" height="16" viewBox="0 0 16 16" fill="none" xmlns="http://www.w3.org/2000/svg">
<path fill-rule="evenodd" clip-rule="evenodd" d="M11.7857 3.42496C11.8292 3.38143 11.8882 3.35697 11.9498 3.35697C11.9803 3.35697 12.0105 3.36298 12.0386 3.37464C12.0668 3.38631 12.0924 3.40341 12.114 3.42496C12.1355 3.44652 12.1526 3.47211 12.1643 3.50027C12.1759 3.52843 12.1819 3.55862 12.1819 3.5891C12.1819 3.61959 12.1759 3.64977 12.1643 3.67794C12.1526 3.7061 12.1355 3.73169 12.114 3.75324L4.51384 11.3534L4.07613 11.4628L4.18556 11.0251L11.7857 3.42496ZM11.9498 1.16895C11.3079 1.16895 10.6924 1.42393 10.2385 1.87779L2.42412 9.69218C2.28391 9.83238 2.18444 10.0081 2.13635 10.2004L1.5112 12.701C1.418 13.0738 1.52724 13.4682 1.79897 13.7399C2.0707 14.0117 2.46508 14.1209 2.83789 14.0277L5.33849 13.4026C5.53086 13.3545 5.70653 13.255 5.84674 13.1148L13.6611 5.30041C13.8859 5.07568 14.0641 4.80889 14.1857 4.51526C14.3074 4.22163 14.37 3.90692 14.37 3.5891C14.37 3.27128 14.3074 2.95658 14.1857 2.66295C14.0641 2.36932 13.8859 2.10253 13.6611 1.87779C13.4364 1.65306 13.1696 1.47479 12.876 1.35317C12.5823 1.23154 12.2676 1.16895 11.9498 1.16895ZM8.19967 11.8724C7.59546 11.8724 7.10566 12.3622 7.10566 12.9664C7.10566 13.5707 7.59546 14.0605 8.19967 14.0605H13.826C14.4302 14.0605 14.92 13.5707 14.92 12.9664C14.92 12.3622 14.4302 11.8724 13.826 11.8724H8.19967Z" fill="#050728"/>
</svg>
