<svg width="27" height="27" viewBox="0 0 27 27" fill="none" xmlns="http://www.w3.org/2000/svg">
<path fill-rule="evenodd" clip-rule="evenodd" d="M11.653 2.05554C12.1514 1.76836 12.7165 1.61719 13.2917 1.61719C13.8669 1.61719 14.432 1.76836 14.9304 2.05554L14.9327 2.0569L22.5866 6.43052L22.5908 6.43294C22.9963 6.66707 23.3459 6.98459 23.6173 7.36316C23.6825 7.42873 23.7404 7.5037 23.7889 7.58753C23.8306 7.65955 23.8631 7.73435 23.8869 7.81058C24.1128 8.26367 24.2313 8.76379 24.2318 9.27191V9.27304V18.0251V18.0263C24.2312 18.6018 24.0793 19.1671 23.7913 19.6654C23.5032 20.1637 23.0892 20.5775 22.5908 20.8652L22.5866 20.8677L14.9327 25.2413L14.9304 25.2426C14.5835 25.4425 14.2043 25.5765 13.8119 25.6395C13.6572 25.7233 13.48 25.7709 13.2917 25.7709C13.1034 25.7709 12.9262 25.7233 12.7715 25.6395C12.3791 25.5765 11.9999 25.4425 11.653 25.2426L11.6507 25.2413L3.99681 20.8677L3.99258 20.8652C3.49414 20.5775 3.08014 20.1637 2.79211 19.6654C2.50408 19.1671 2.35215 18.6018 2.35156 18.0263L2.35156 18.0251V9.27304L2.35156 9.27191C2.35208 8.76582 2.46962 8.26767 2.69381 7.81602C2.71772 7.73791 2.75081 7.66127 2.79346 7.58753C2.84285 7.50215 2.90201 7.42595 2.96871 7.35952C3.2397 6.98255 3.58838 6.66632 3.99258 6.43295L3.9968 6.43051L3.99681 6.43052L11.6507 2.0569L11.653 2.05554ZM14.3857 23.0338L21.4968 18.9703L21.4985 18.9694C21.6639 18.8735 21.8013 18.7359 21.897 18.5704C21.993 18.4043 22.0436 18.2159 22.0438 18.024V9.86088L14.3857 14.2908V23.0338ZM12.1977 14.2914V23.0338L5.0866 18.9703L5.08483 18.9693C4.91947 18.8734 4.78211 18.7359 4.68644 18.5704C4.59051 18.4044 4.53987 18.2162 4.53959 18.0245V9.86147L12.1977 14.2914ZM13.8429 3.95421L20.9069 7.99078L13.2912 12.3962L5.67594 7.99107L12.7405 3.95421L12.7405 3.95422L12.7447 3.95178C12.911 3.85576 13.0997 3.80521 13.2917 3.80521C13.4837 3.80521 13.6724 3.85576 13.8387 3.95178L13.8387 3.95179L13.8429 3.95421Z" fill="#4A4D61"/>
</svg>
