<svg width="16" height="16" viewBox="0 0 16 16" fill="none" xmlns="http://www.w3.org/2000/svg">
<path fill-rule="evenodd" clip-rule="evenodd" d="M6.74948 2.85392C6.77879 2.82461 6.81854 2.80814 6.85999 2.80814H9.36059C9.40204 2.80814 9.4418 2.82461 9.47111 2.85392C9.50042 2.88323 9.51688 2.92298 9.51688 2.96443V3.12064H6.7037V2.96443C6.7037 2.92298 6.72017 2.88323 6.74948 2.85392ZM4.51568 3.12064V2.96443C4.51568 2.34268 4.76267 1.74639 5.20231 1.30675C5.64195 0.867107 6.23824 0.620117 6.85999 0.620117H9.36059C9.98234 0.620117 10.5786 0.867107 11.0183 1.30675C11.4579 1.74639 11.7049 2.34268 11.7049 2.96443V3.12064H13.7359C14.3401 3.12064 14.8299 3.61045 14.8299 4.21466C14.8299 4.81886 14.3401 5.30867 13.7359 5.30867H13.5804V12.9668C13.5804 13.5886 13.3334 14.1849 12.8937 14.6245C12.4541 15.0642 11.8578 15.3112 11.236 15.3112H4.98454C4.36279 15.3112 3.7665 15.0642 3.32686 14.6245C2.88721 14.1849 2.64022 13.5886 2.64022 12.9668V5.30867H2.48317C1.87897 5.30867 1.38916 4.81886 1.38916 4.21466C1.38916 3.61045 1.87897 3.12064 2.48317 3.12064H3.73347H4.51568ZM5.60969 5.30875H10.6109H11.3923V12.9668C11.3923 13.0083 11.3759 13.048 11.3466 13.0774C11.3172 13.1067 11.2775 13.1231 11.236 13.1231H4.98454C4.94309 13.1231 4.90334 13.1067 4.87403 13.0774C4.84472 13.048 4.82825 13.0083 4.82825 12.9668V5.30875H5.60969Z" fill="#050728"/>
</svg>
