<svg width="18" height="18" viewBox="0 0 18 18" fill="none" xmlns="http://www.w3.org/2000/svg">
<path fill-rule="evenodd" clip-rule="evenodd" d="M13 1.5C13 0.947715 12.5523 0.5 12 0.5C11.4477 0.5 11 0.947715 11 1.5V2H6.99999V1.5C6.99999 0.947715 6.55227 0.5 5.99999 0.5C5.44771 0.5 4.99999 0.947715 4.99999 1.5V2H3.75C2.36929 2 1.25 3.11929 1.25 4.5V7.5V15C1.25 16.3807 2.36929 17.5 3.75 17.5H14.25C15.6307 17.5 16.75 16.3807 16.75 15V7.5V4.5C16.75 3.11929 15.6307 2 14.25 2H13V1.5ZM14.75 6.5V4.5C14.75 4.22386 14.5261 4 14.25 4H13V4.5C13 5.05228 12.5523 5.5 12 5.5C11.4477 5.5 11 5.05228 11 4.5V4H6.99999V4.5C6.99999 5.05228 6.55227 5.5 5.99999 5.5C5.44771 5.5 4.99999 5.05228 4.99999 4.5V4H3.75C3.47386 4 3.25 4.22386 3.25 4.5V6.5H14.75ZM3.25 8.5H14.75V15C14.75 15.2761 14.5261 15.5 14.25 15.5H3.75C3.47386 15.5 3.25 15.2761 3.25 15V8.5Z" fill="#5C5D82"/>
</svg>
