<svg width="18" height="18" viewBox="0 0 18 18" fill="none" xmlns="http://www.w3.org/2000/svg">
<path fill-rule="evenodd" clip-rule="evenodd" d="M2.5 9C2.5 5.41015 5.41015 2.5 9 2.5C12.5899 2.5 15.5 5.41015 15.5 9C15.5 12.5899 12.5899 15.5 9 15.5C5.41015 15.5 2.5 12.5899 2.5 9ZM9 0.5C4.30558 0.5 0.5 4.30558 0.5 9C0.5 13.6944 4.30558 17.5 9 17.5C13.6944 17.5 17.5 13.6944 17.5 9C17.5 4.30558 13.6944 0.5 9 0.5ZM10 4.5C10 3.94772 9.55229 3.5 9.00001 3.5C8.44773 3.5 8.00001 3.94772 8.00001 4.5V9C8.00001 9.37877 8.21401 9.72504 8.5528 9.89443L11.5528 11.3944C12.0468 11.6414 12.6474 11.4412 12.8944 10.9472C13.1414 10.4532 12.9412 9.85256 12.4472 9.60557L10 8.38197V4.5Z" fill="#6C6C6C"/>
</svg>
