<svg width="33" height="33" viewBox="0 0 33 33" fill="none" xmlns="http://www.w3.org/2000/svg">
<path fill-rule="evenodd" clip-rule="evenodd" d="M25.4571 8.95711C25.8476 8.56658 25.8476 7.93342 25.4571 7.54289C25.0666 7.15237 24.4334 7.15237 24.0429 7.54289L16.5 15.0858L8.95711 7.54289C8.56658 7.15237 7.93342 7.15237 7.54289 7.54289C7.15237 7.93342 7.15237 8.56658 7.54289 8.95711L15.0858 16.5L7.54289 24.0429C7.15237 24.4334 7.15237 25.0666 7.54289 25.4571C7.93342 25.8476 8.56658 25.8476 8.95711 25.4571L16.5 17.9142L24.0429 25.4571C24.4334 25.8476 25.0666 25.8476 25.4571 25.4571C25.8476 25.0666 25.8476 24.4334 25.4571 24.0429L17.9142 16.5L25.4571 8.95711Z" fill="#4A4D61"/>
</svg>
