<svg width="14" height="14" viewBox="0 0 14 14" fill="none" xmlns="http://www.w3.org/2000/svg">
<path fill-rule="evenodd" clip-rule="evenodd" d="M8.00034 2.91666C8.00034 2.36437 7.55262 1.91666 7.00034 1.91666C6.44805 1.91666 6.00034 2.36437 6.00034 2.91666V6H2.91699C2.36471 6 1.91699 6.44772 1.91699 7C1.91699 7.55229 2.36471 8 2.91699 8H6.00034V11.0833C6.00034 11.6356 6.44805 12.0833 7.00034 12.0833C7.55262 12.0833 8.00034 11.6356 8.00034 11.0833V8H11.0837C11.6359 8 12.0837 7.55229 12.0837 7C12.0837 6.44772 11.6359 6 11.0837 6H8.00034V2.91666Z" fill="#E82A45"/>
</svg>
