<svg width="33" height="33" viewBox="0 0 33 33" fill="none" xmlns="http://www.w3.org/2000/svg">
<path fill-rule="evenodd" clip-rule="evenodd" d="M14.7805 2.02185C15.4139 1.65694 16.132 1.46484 16.863 1.46484C17.594 1.46484 18.3121 1.65694 18.9454 2.02185L18.9486 2.02369L28.3338 7.38664L28.3396 7.38992L28.3396 7.38994C28.8533 7.68655 29.2965 8.08851 29.6409 8.56766C29.7243 8.65362 29.7985 8.7511 29.8612 8.85943C29.9145 8.95156 29.9568 9.04703 29.9885 9.14431C30.2745 9.71924 30.4245 10.3536 30.4252 10.9981L30.4252 10.9996V21.7321L30.4252 21.7336C30.4244 22.4651 30.2313 23.1835 29.8653 23.8168C29.4992 24.4501 28.973 24.976 28.3396 25.3418L28.3338 25.3451L28.3338 25.3451L18.9486 30.708L18.9456 30.7098C18.5117 30.9598 18.038 31.1287 17.5477 31.2103C17.3426 31.3168 17.1097 31.377 16.8627 31.377C16.6155 31.377 16.3824 31.3167 16.1773 31.2101C15.6873 31.1285 15.214 30.9596 14.7804 30.7098L14.7773 30.708L5.39216 25.3451L5.38642 25.3418C4.75293 24.976 4.22676 24.4501 3.86069 23.8168C3.49463 23.1835 3.30153 22.4651 3.30078 21.7336L3.30078 21.7321V10.9996L3.30078 10.9981C3.30144 10.3613 3.44786 9.73438 3.72728 9.16492C3.75967 9.0605 3.80414 8.95806 3.86119 8.85943C3.92726 8.74521 4.00619 8.64306 4.0951 8.55375C4.43809 8.08073 4.87764 7.68368 5.38642 7.38994L5.39215 7.38662L5.39216 7.38664L14.7773 2.02369L14.7805 2.02185ZM18.3508 27.6217L26.8514 22.7642L26.8537 22.7629C27.0342 22.6582 27.1841 22.508 27.2885 22.3274C27.3934 22.146 27.4487 21.9401 27.4489 21.7306V11.974L18.3508 17.237V27.6217ZM15.3745 17.2387V27.6213L6.87456 22.7642L6.87229 22.7629C6.69182 22.6582 6.5419 22.508 6.43747 22.3274C6.33271 22.1461 6.2774 21.9406 6.27707 21.7312V11.9761L15.3745 17.2387ZM17.4662 4.60453L25.9068 9.4277L16.8612 14.6603L7.81735 9.42874L16.2597 4.60453L16.2598 4.60454L16.2655 4.60123C16.4472 4.49635 16.6532 4.44113 16.863 4.44113C17.0727 4.44113 17.2788 4.49635 17.4605 4.60123L17.4605 4.60124L17.4662 4.60453Z" fill="#4A4D61"/>
</svg>
