<svg width="24" height="24" viewBox="0 0 24 24" fill="none" xmlns="http://www.w3.org/2000/svg">
<path fill-rule="evenodd" clip-rule="evenodd" d="M10 6C10 4.89543 10.8954 4 12 4C13.1046 4 14 4.89543 14 6C14 7.10457 13.1046 8 12 8C10.8954 8 10 7.10457 10 6ZM13 9.87398C14.7252 9.42994 16 7.86384 16 6C16 3.79086 14.2091 2 12 2C9.79086 2 8 3.79086 8 6C8 7.86384 9.27477 9.42994 11 9.87398V11H7C6.20435 11 5.44129 11.3161 4.87868 11.8787C4.31607 12.4413 4 13.2044 4 14V15C4 15.0118 4.00021 15.0236 4.00062 15.0354C2.30417 15.2777 1 16.7365 1 18.5C1 20.433 2.567 22 4.5 22C6.433 22 8 20.433 8 18.5C8 17.0842 7.15931 15.8647 5.94987 15.3135C5.9824 15.2149 6 15.1095 6 15V14C6 13.7348 6.10536 13.4804 6.29289 13.2929C6.48043 13.1054 6.73478 13 7 13H11V15.1449C9.55426 15.5752 8.5 16.9145 8.5 18.5C8.5 20.433 10.067 22 12 22C13.933 22 15.5 20.433 15.5 18.5C15.5 16.9145 14.4457 15.5752 13 15.1449V13H17C17.2652 13 17.5196 13.1054 17.7071 13.2929C17.8946 13.4804 18 13.7348 18 14V15C18 15.1095 18.0176 15.2149 18.0501 15.3135C16.8407 15.8647 16 17.0842 16 18.5C16 20.433 17.567 22 19.5 22C21.433 22 23 20.433 23 18.5C23 16.7365 21.6958 15.2777 19.9994 15.0354C19.9998 15.0236 20 15.0118 20 15V14C20 13.2044 19.6839 12.4413 19.1213 11.8787C18.5587 11.3161 17.7956 11 17 11H13V9.87398ZM12 17C11.1716 17 10.5 17.6716 10.5 18.5C10.5 19.3284 11.1716 20 12 20C12.8284 20 13.5 19.3284 13.5 18.5C13.5 17.6716 12.8284 17 12 17ZM19.5 17C18.6716 17 18 17.6716 18 18.5C18 19.3284 18.6716 20 19.5 20C20.3284 20 21 19.3284 21 18.5C21 17.6716 20.3284 17 19.5 17ZM6 18.5C6 17.6716 5.32843 17 4.5 17C3.67157 17 3 17.6716 3 18.5C3 19.3284 3.67157 20 4.5 20C5.32843 20 6 19.3284 6 18.5Z" fill="white"/>
</svg>
