<svg width="18" height="18" viewBox="0 0 18 18" fill="none" xmlns="http://www.w3.org/2000/svg">
<path fill-rule="evenodd" clip-rule="evenodd" d="M7.75 4.50003C7.75 3.80967 8.30964 3.25003 9 3.25003C9.69036 3.25003 10.25 3.80967 10.25 4.50003C10.25 5.19039 9.69036 5.75003 9 5.75003C8.30964 5.75003 7.75 5.19039 7.75 4.50003ZM10 7.59328C11.3056 7.1715 12.25 5.94605 12.25 4.50003C12.25 2.70511 10.7949 1.25003 9 1.25003C7.20507 1.25003 5.75 2.70511 5.75 4.50003C5.75 5.94605 6.69437 7.1715 8 7.59328V8.00003H5.25C4.58696 8.00003 3.95108 8.26342 3.48223 8.73226C3.01339 9.2011 2.75 9.83699 2.75 10.5V11.0682C1.4627 11.3535 0.5 12.5019 0.5 13.875C0.5 15.4628 1.78718 16.75 3.375 16.75C4.75739 16.75 5.9119 15.7744 6.1875 14.4741C6.46309 15.7744 7.61761 16.75 9 16.75C10.3824 16.75 11.5369 15.7744 11.8125 14.4741C12.0881 15.7744 13.2426 16.75 14.625 16.75C16.2128 16.75 17.5 15.4628 17.5 13.875C17.5 12.5019 16.5373 11.3535 15.25 11.0682V10.5C15.25 9.83699 14.9866 9.2011 14.5178 8.73226C14.0489 8.26342 13.413 8.00003 12.75 8.00003H10V7.59328ZM8 10H5.25C5.11739 10 4.99022 10.0527 4.89645 10.1465C4.80268 10.2402 4.75 10.3674 4.75 10.5V11.25C4.75 11.2827 4.74843 11.3151 4.74536 11.347C5.47293 11.7422 6.01082 12.4424 6.1875 13.276C6.39299 12.3065 7.08711 11.5174 8 11.1787V10ZM10 11.1787V10H12.75C12.8826 10 13.0098 10.0527 13.1036 10.1465C13.1973 10.2402 13.25 10.3674 13.25 10.5V11.25C13.25 11.2827 13.2516 11.3151 13.2546 11.347C12.5271 11.7422 11.9892 12.4424 11.8125 13.276C11.607 12.3065 10.9129 11.5174 10 11.1787ZM9 13C8.51675 13 8.125 13.3918 8.125 13.875C8.125 14.3583 8.51675 14.75 9 14.75C9.48325 14.75 9.875 14.3583 9.875 13.875C9.875 13.3918 9.48325 13 9 13ZM14.625 13C14.1418 13 13.75 13.3918 13.75 13.875C13.75 14.3583 14.1418 14.75 14.625 14.75C15.1082 14.75 15.5 14.3583 15.5 13.875C15.5 13.3918 15.1082 13 14.625 13ZM4.25 13.875C4.25 13.3918 3.85825 13 3.375 13C2.89175 13 2.5 13.3918 2.5 13.875C2.5 14.3583 2.89175 14.75 3.375 14.75C3.85825 14.75 4.25 14.3583 4.25 13.875Z" fill="#E82A45"/>
</svg>
