<svg width="27" height="27" viewBox="0 0 27 27" fill="none" xmlns="http://www.w3.org/2000/svg">
<path fill-rule="evenodd" clip-rule="evenodd" d="M13.2929 1.61816C13.0028 1.61816 12.7245 1.73343 12.5194 1.93859C12.3142 2.14376 12.1989 2.42203 12.1989 2.71218V13.6523C12.1989 14.2565 12.6887 14.7463 13.2929 14.7463H24.2331C24.8373 14.7463 25.3271 14.2565 25.3271 13.6523C25.3271 12.072 25.0158 10.5071 24.411 9.04704C23.8063 7.58699 22.9198 6.26036 21.8024 5.14288C20.6849 4.02541 19.3583 3.13898 17.8982 2.53421C16.4382 1.92944 14.8733 1.61816 13.2929 1.61816ZM14.3869 12.5583V3.86716C15.3044 3.96973 16.2047 4.20102 17.0609 4.55568C18.2555 5.0505 19.3409 5.77575 20.2552 6.69005C21.1695 7.60435 21.8948 8.68978 22.3896 9.88436C22.7442 10.7406 22.9755 11.6409 23.0781 12.5583H14.3869ZM9.35489 4.62299C9.90866 4.38133 10.1617 3.73651 9.92002 3.18273C9.67836 2.62896 9.03354 2.37594 8.47976 2.61759C6.67811 3.40381 5.09648 4.61939 3.87315 6.15808C2.64981 7.69676 1.82203 9.51169 1.46217 11.4442C1.1023 13.3767 1.22131 15.3679 1.8088 17.2438C2.39628 19.1197 3.43434 20.8231 4.83224 22.2052C6.23013 23.5872 7.94529 24.6057 9.82776 25.1717C11.7102 25.7378 13.7027 25.834 15.631 25.4521C17.5592 25.0702 19.3646 24.2218 20.8892 22.9809C22.4138 21.7401 23.6113 20.1447 24.3769 18.3342C24.6122 17.7777 24.3518 17.1358 23.7953 16.9005C23.2388 16.6652 22.5969 16.9255 22.3616 17.482C21.7352 18.9634 20.7555 20.2687 19.5081 21.2839C18.2607 22.2991 16.7836 22.9933 15.2059 23.3058C13.6282 23.6183 11.998 23.5395 10.4578 23.0764C8.91759 22.6133 7.51428 21.7799 6.37054 20.6492C5.22681 19.5184 4.37749 18.1247 3.89682 16.5899C3.41615 15.0551 3.31878 13.4259 3.61322 11.8448C3.90765 10.2636 4.58493 8.77867 5.58583 7.51975C6.58674 6.26083 7.8808 5.26626 9.35489 4.62299Z" fill="#EB5757"/>
</svg>
