<svg width="39" height="39" viewBox="0 0 39 39" fill="none" xmlns="http://www.w3.org/2000/svg">
<path fill-rule="evenodd" clip-rule="evenodd" d="M16.3202 10.4614C16.3202 8.84103 17.6743 7.46143 19.427 7.46143C21.1796 7.46143 22.5337 8.84103 22.5337 10.4614C22.5337 12.0818 21.1796 13.4614 19.427 13.4614C17.6743 13.4614 16.3202 12.0818 16.3202 10.4614ZM19.427 3.96143C15.815 3.96143 12.8202 6.83512 12.8202 10.4614C12.8202 13.481 14.8967 15.9788 17.677 16.73V18.2109H11.3324C10.0219 18.2109 8.75754 18.7197 7.8193 19.6373C6.87975 20.5562 6.34458 21.8109 6.34458 23.1276V24.6196C3.61533 25.0602 1.48785 27.3858 1.48785 30.2528C1.48785 33.4419 4.12025 35.9611 7.28514 35.9611C10.45 35.9611 13.0824 33.4419 13.0824 30.2528C13.0824 27.9672 11.7303 26.0257 9.7991 25.109C9.82885 24.9811 9.84458 24.8479 9.84458 24.7109V23.1276C9.84458 22.7646 9.99166 22.4084 10.2665 22.1395C10.5427 21.8694 10.9254 21.7109 11.3324 21.7109H17.677V24.8102C15.3479 25.537 13.6297 27.6763 13.6297 30.2528C13.6297 33.4419 16.2621 35.9611 19.427 35.9611C22.5919 35.9611 25.2243 33.4419 25.2243 30.2528C25.2243 27.6763 23.506 25.537 21.177 24.8102V21.7109H27.5215C27.9285 21.7109 28.3112 21.8694 28.5874 22.1395C28.8623 22.4084 29.0094 22.7646 29.0094 23.1276V24.7109C29.0094 24.8479 29.0251 24.9811 29.0548 25.109C27.1237 26.0257 25.7716 27.9672 25.7716 30.2528C25.7716 33.4419 28.404 35.9611 31.5688 35.9611C34.7337 35.9611 37.3661 33.4419 37.3661 30.2528C37.3661 27.3858 35.2386 25.0602 32.5094 24.6196V23.1276C32.5094 21.8109 31.9742 20.5562 31.0346 19.6373C30.0964 18.7197 28.832 18.2109 27.5215 18.2109H21.177V16.73C23.9572 15.9787 26.0337 13.481 26.0337 10.4614C26.0337 6.83512 23.0389 3.96143 19.427 3.96143ZM19.3925 28.0447C19.404 28.0449 19.4155 28.045 19.427 28.045C19.4385 28.045 19.45 28.0449 19.4614 28.0447C20.75 28.0625 21.7243 29.08 21.7243 30.2528C21.7243 31.4359 20.7326 32.4611 19.427 32.4611C18.1214 32.4611 17.1297 31.4359 17.1297 30.2528C17.1297 29.08 18.104 28.0625 19.3925 28.0447ZM31.5688 28.0444C30.2632 28.0444 29.2716 29.0696 29.2716 30.2528C29.2716 31.4359 30.2632 32.4611 31.5688 32.4611C32.8745 32.4611 33.8661 31.4359 33.8661 30.2528C33.8661 29.0696 32.8745 28.0444 31.5688 28.0444ZM9.58242 30.2528C9.58242 29.0696 8.59076 28.0444 7.28514 28.0444C5.97952 28.0444 4.98785 29.0696 4.98785 30.2528C4.98785 31.4359 5.97952 32.4611 7.28514 32.4611C8.59076 32.4611 9.58242 31.4359 9.58242 30.2528Z" fill="white"/>
</svg>
