<svg width="17" height="17" viewBox="0 0 17 17" fill="none" xmlns="http://www.w3.org/2000/svg">
<path fill-rule="evenodd" clip-rule="evenodd" d="M2.95881 1.80078C2.51988 1.80078 2.16406 2.1566 2.16406 2.59553V7.23158C2.16406 7.6705 2.51988 8.02633 2.95881 8.02633H7.59486C8.03379 8.02633 8.38961 7.6705 8.38961 7.23158V2.59553C8.38961 2.1566 8.03379 1.80078 7.59486 1.80078H2.95881ZM3.75356 6.43683V3.39028H6.80011V6.43683H3.75356ZM10.2439 1.80078C9.80497 1.80078 9.44915 2.1566 9.44915 2.59553V7.23158C9.44915 7.6705 9.80497 8.02633 10.2439 8.02633H14.8799C15.3189 8.02633 15.6747 7.6705 15.6747 7.23158V2.59553C15.6747 2.1566 15.3189 1.80078 14.8799 1.80078H10.2439ZM11.0386 6.43683V3.39028H14.0852V6.43683H11.0386ZM9.44915 9.88061C9.44915 9.44169 9.80497 9.08586 10.2439 9.08586H14.8799C15.3189 9.08586 15.6747 9.44169 15.6747 9.88061V14.5167C15.6747 14.9556 15.3189 15.3114 14.8799 15.3114H10.2439C9.80497 15.3114 9.44915 14.9556 9.44915 14.5167V9.88061ZM11.0386 10.6754V13.7219H14.0852V10.6754H11.0386ZM2.95881 9.08586C2.51988 9.08586 2.16406 9.44169 2.16406 9.88061V14.5167C2.16406 14.9556 2.51988 15.3114 2.95881 15.3114H7.59486C8.03379 15.3114 8.38961 14.9556 8.38961 14.5167V9.88061C8.38961 9.44169 8.03379 9.08586 7.59486 9.08586H2.95881ZM3.75356 13.7219V10.6754H6.80011V13.7219H3.75356Z" fill="#E82A45"/>
</svg>
