<svg width="18" height="18" viewBox="0 0 18 18" fill="none" xmlns="http://www.w3.org/2000/svg">
<path fill-rule="evenodd" clip-rule="evenodd" d="M13.0821 3.33211C13.193 3.22128 13.3433 3.15901 13.5 3.15901C13.5776 3.15901 13.6545 3.1743 13.7262 3.204C13.7979 3.2337 13.863 3.27723 13.9179 3.33211C13.9728 3.38699 14.0163 3.45214 14.046 3.52384C14.0757 3.59554 14.091 3.67239 14.091 3.75C14.091 3.82761 14.0757 3.90446 14.046 3.97616C14.0163 4.04787 13.9728 4.11302 13.9179 4.1679L4.73877 13.347L3.62439 13.6256L3.90299 12.5113L13.0821 3.33211ZM13.5 1.15901C12.8128 1.15901 12.1538 1.43199 11.6679 1.9179L2.29291 11.2929C2.16476 11.4211 2.07384 11.5816 2.02988 11.7575L1.27988 14.7575C1.19468 15.0982 1.29453 15.4587 1.54291 15.7071C1.79129 15.9555 2.15178 16.0553 2.49256 15.9701L5.49256 15.2201C5.66839 15.1762 5.82897 15.0853 5.95713 14.9571L15.3321 5.58211C15.5727 5.34151 15.7636 5.05589 15.8938 4.74153C16.024 4.42718 16.091 4.09026 16.091 3.75C16.091 3.40975 16.024 3.07283 15.8938 2.75847C15.7636 2.44412 15.5727 2.15849 15.3321 1.9179C15.0915 1.6773 14.8059 1.48645 14.4916 1.35624C14.1772 1.22603 13.8403 1.15901 13.5 1.15901ZM9.00002 14C8.44774 14 8.00002 14.4477 8.00002 15C8.00002 15.5523 8.44774 16 9.00002 16H15.75C16.3023 16 16.75 15.5523 16.75 15C16.75 14.4477 16.3023 14 15.75 14H9.00002Z" fill="#5C5D82"/>
</svg>
