<svg width="18" height="18" viewBox="0 0 18 18" fill="none" xmlns="http://www.w3.org/2000/svg">
<path fill-rule="evenodd" clip-rule="evenodd" d="M13.0821 3.33215C13.193 3.22132 13.3433 3.15906 13.5 3.15906C13.5776 3.15906 13.6545 3.17434 13.7262 3.20404C13.7979 3.23374 13.863 3.27728 13.9179 3.33215C13.9728 3.38703 14.0163 3.45218 14.046 3.52389C14.0757 3.59559 14.091 3.67244 14.091 3.75005C14.091 3.82766 14.0757 3.90451 14.046 3.97621C14.0163 4.04791 13.9728 4.11306 13.9179 4.16794L4.73877 13.3471L3.62439 13.6257L3.90299 12.5113L13.0821 3.33215ZM13.5 1.15906C12.8128 1.15906 12.1538 1.43204 11.6679 1.91794L2.29291 11.2929C2.16476 11.4211 2.07384 11.5817 2.02988 11.7575L1.27988 14.7575C1.19468 15.0983 1.29453 15.4588 1.54291 15.7072C1.79129 15.9555 2.15178 16.0554 2.49256 15.9702L5.49256 15.2202C5.66839 15.1762 5.82897 15.0853 5.95713 14.9572L15.3321 5.58215C15.5727 5.34156 15.7636 5.05593 15.8938 4.74158C16.024 4.42722 16.091 4.0903 16.091 3.75005C16.091 3.40979 16.024 3.07287 15.8938 2.75852C15.7636 2.44416 15.5727 2.15854 15.3321 1.91794C15.0915 1.67735 14.8059 1.48649 14.4916 1.35629C14.1772 1.22608 13.8403 1.15906 13.5 1.15906ZM9.00002 14C8.44774 14 8.00002 14.4478 8.00002 15C8.00002 15.5523 8.44774 16 9.00002 16H15.75C16.3023 16 16.75 15.5523 16.75 15C16.75 14.4478 16.3023 14 15.75 14H9.00002Z" fill="white"/>
</svg>
