<svg width="16" height="16" viewBox="0 0 16 16" fill="none" xmlns="http://www.w3.org/2000/svg">
<path fill-rule="evenodd" clip-rule="evenodd" d="M8.72371 2.52174C8.72371 1.91754 9.21352 1.42773 9.81772 1.42773H13.5686C14.1728 1.42773 14.6626 1.91754 14.6626 2.52174V6.27263C14.6626 6.87683 14.1728 7.36664 13.5686 7.36664C12.9644 7.36664 12.4746 6.87683 12.4746 6.27263V5.16299L7.46579 10.1718C7.03855 10.599 6.34587 10.599 5.91863 10.1718C5.49139 9.74456 5.49139 9.05187 5.91863 8.62463L10.9275 3.61575H9.81772C9.21352 3.61575 8.72371 3.12595 8.72371 2.52174ZM3.56647 5.49127C3.52502 5.49127 3.48527 5.50774 3.45596 5.53705C3.42665 5.56636 3.41018 5.60611 3.41018 5.64756V12.5242C3.41018 12.5656 3.42665 12.6054 3.45596 12.6347C3.48527 12.664 3.52502 12.6805 3.56647 12.6805H10.4431C10.4845 12.6805 10.5243 12.664 10.5536 12.6347C10.5829 12.6054 10.5994 12.5656 10.5994 12.5242V8.7733C10.5994 8.16909 11.0892 7.67929 11.6934 7.67929C12.2976 7.67929 12.7874 8.16909 12.7874 8.7733V12.5242C12.7874 13.1459 12.5404 13.7422 12.1008 14.1819C11.6611 14.6215 11.0648 14.8685 10.4431 14.8685H3.56647C2.94472 14.8685 2.34844 14.6215 1.9088 14.1819C1.46916 13.7422 1.22217 13.1459 1.22217 12.5242V5.64756C1.22217 5.02581 1.46916 4.42953 1.9088 3.98988C2.34844 3.55024 2.94472 3.30325 3.56647 3.30325H7.31736C7.92156 3.30325 8.41137 3.79306 8.41137 4.39726C8.41137 5.00147 7.92156 5.49127 7.31736 5.49127H3.56647Z" fill="#050728"/>
</svg>
