<svg width="17" height="17" viewBox="0 0 17 17" fill="none" xmlns="http://www.w3.org/2000/svg">
<path fill-rule="evenodd" clip-rule="evenodd" d="M2.14197 8.50774C2.04468 8.3571 1.963 8.22329 1.89731 8.11177C1.963 8.00025 2.04468 7.86644 2.14197 7.7158C2.44366 7.24867 2.89024 6.62782 3.46944 6.01C4.64233 4.75892 6.26515 3.61639 8.26202 3.61639C10.2589 3.61639 11.8817 4.75892 13.0546 6.01C13.6338 6.62782 14.0804 7.24867 14.3821 7.7158C14.4794 7.86644 14.561 8.00025 14.6267 8.11177C14.561 8.22329 14.4794 8.3571 14.3821 8.50774C14.0804 8.97487 13.6338 9.59572 13.0546 10.2135C11.8817 11.4646 10.2589 12.6071 8.26202 12.6071C6.26515 12.6071 4.64233 11.4646 3.46944 10.2135C2.89024 9.59572 2.44366 8.97487 2.14197 8.50774ZM16.2432 7.75645C16.2434 7.75673 16.2435 7.75699 15.534 8.11177C16.2435 8.46655 16.2434 8.46681 16.2432 8.46709L16.2429 8.46776L16.242 8.46946L16.2396 8.4743L16.2318 8.48966C16.2252 8.50237 16.2161 8.52 16.2043 8.54221C16.1808 8.58661 16.1469 8.6494 16.1027 8.72794C16.0144 8.88493 15.8847 9.1055 15.7149 9.36851C15.3761 9.89301 14.8724 10.5943 14.2121 11.2987C12.9059 12.6919 10.8927 14.1938 8.26202 14.1938C5.63129 14.1938 3.61814 12.6919 2.31196 11.2987C1.65163 10.5943 1.1479 9.89301 0.809159 9.36851C0.639296 9.1055 0.509624 8.88493 0.421319 8.72794C0.377137 8.6494 0.343221 8.58661 0.319725 8.54221C0.307973 8.52 0.29882 8.50237 0.292283 8.48966L0.284439 8.4743L0.281991 8.46946L0.281137 8.46776L0.280802 8.46709C0.28066 8.46681 0.280528 8.46655 0.99008 8.11177C0.280528 7.75699 0.28066 7.75673 0.280802 7.75645L0.281137 7.75578L0.281991 7.75408L0.284439 7.74924L0.292283 7.73388C0.29882 7.72116 0.307973 7.70354 0.319725 7.68133C0.343221 7.63693 0.377137 7.57414 0.421319 7.4956C0.509624 7.33861 0.639296 7.11804 0.809159 6.85503C1.1479 6.33052 1.65163 5.62921 2.31196 4.92486C3.61814 3.53159 5.63129 2.02979 8.26202 2.02979C10.8927 2.02979 12.9059 3.53159 14.2121 4.92486C14.8724 5.62921 15.3761 6.33052 15.7149 6.85503C15.8847 7.11804 16.0144 7.33861 16.1027 7.4956C16.1469 7.57414 16.1808 7.63693 16.2043 7.68133C16.2161 7.70354 16.2252 7.72116 16.2318 7.73388L16.2396 7.74924L16.242 7.75408L16.2429 7.75578L16.2432 7.75645ZM15.534 8.11177L16.2435 7.75699C16.3552 7.98033 16.3552 8.24321 16.2435 8.46655L15.534 8.11177ZM0.280528 7.75699L0.99008 8.11177L0.280528 8.46655C0.16886 8.24321 0.16886 7.98033 0.280528 7.75699ZM7.07193 8.11164C7.07193 7.45445 7.60469 6.92169 8.26189 6.92169C8.91908 6.92169 9.45184 7.45445 9.45184 8.11164C9.45184 8.76883 8.91908 9.30159 8.26189 9.30159C7.60469 9.30159 7.07193 8.76883 7.07193 8.11164ZM8.26189 5.33508C6.72844 5.33508 5.48533 6.57819 5.48533 8.11164C5.48533 9.64509 6.72844 10.8882 8.26189 10.8882C9.79534 10.8882 11.0384 9.64509 11.0384 8.11164C11.0384 6.57819 9.79534 5.33508 8.26189 5.33508Z" fill="#5C5D82"/>
</svg>
