<svg width="39" height="39" viewBox="0 0 39 39" fill="none" xmlns="http://www.w3.org/2000/svg">
<path fill-rule="evenodd" clip-rule="evenodd" d="M6.19934 3.3048C7.13757 2.38719 8.40198 1.87842 9.71244 1.87842H22.6637H22.6638C23.1447 1.87842 23.5803 2.07241 23.8967 2.38641L33.5914 11.8681C33.9218 12.1864 34.1273 12.6334 34.1273 13.1284L34.1272 13.1441V32.1284C34.1272 33.4451 33.5921 34.6998 32.6525 35.6187C31.7143 36.5363 30.4499 37.0451 29.1394 37.0451H9.71244C8.40198 37.0451 7.13757 36.5363 6.19934 35.6187C5.25978 34.6998 4.72461 33.4451 4.72461 32.1284V6.79508C4.72461 5.4784 5.25978 4.22371 6.19934 3.3048ZM9.71244 5.37842H20.9138V13.1284C20.9138 14.0949 21.6973 14.8784 22.6638 14.8784H30.6272V32.1284C30.6272 32.4914 30.4802 32.8477 30.2053 33.1165C29.9291 33.3866 29.5464 33.5451 29.1394 33.5451H9.71244C9.30545 33.5451 8.92275 33.3866 8.64656 33.1165C8.37169 32.8477 8.22461 32.4914 8.22461 32.1284V6.79508C8.22461 6.43207 8.37169 6.07585 8.64656 5.80702C8.92274 5.53691 9.30545 5.37842 9.71244 5.37842ZM24.4138 7.78785L28.0851 11.3784H24.4138V7.78785ZM12.95 19.2947C11.9835 19.2947 11.2 20.0782 11.2 21.0447C11.2 22.0112 11.9835 22.7947 12.95 22.7947H25.9013C26.8678 22.7947 27.6513 22.0112 27.6513 21.0447C27.6513 20.0782 26.8678 19.2947 25.9013 19.2947H12.95ZM11.2 27.3782C11.2 26.4117 11.9835 25.6282 12.95 25.6282H25.9013C26.8678 25.6282 27.6513 26.4117 27.6513 27.3782C27.6513 28.3447 26.8678 29.1282 25.9013 29.1282H12.95C11.9835 29.1282 11.2 28.3447 11.2 27.3782ZM12.95 12.962C11.9835 12.962 11.2 13.7455 11.2 14.712C11.2 15.6785 11.9835 16.462 12.95 16.462H14.5689H16.1878C17.1543 16.462 17.9378 15.6785 17.9378 14.712C17.9378 13.7455 17.1543 12.962 16.1878 12.962H14.5689H12.95Z" fill="#4A4D61"/>
</svg>
