<svg width="24" height="24" viewBox="0 0 24 24" fill="none" xmlns="http://www.w3.org/2000/svg">
<path fill-rule="evenodd" clip-rule="evenodd" d="M12 3C7.02944 3 3 7.02944 3 12C3 16.9706 7.02944 21 12 21C16.9706 21 21 16.9706 21 12C21 7.02944 16.9706 3 12 3ZM1 12C1 5.92487 5.92487 1 12 1C18.0751 1 23 5.92487 23 12C23 18.0751 18.0751 23 12 23C5.92487 23 1 18.0751 1 12ZM12.2581 8.02432C11.7926 7.94447 11.3138 8.03195 10.9066 8.27127C10.4994 8.51058 10.1901 8.88629 10.0333 9.33185C9.85007 9.85283 9.27915 10.1266 8.75817 9.94334C8.23718 9.76006 7.9634 9.18915 8.14667 8.66816C8.46015 7.77705 9.07888 7.02563 9.89328 6.547C10.7077 6.06837 11.6652 5.89341 12.5962 6.05311C13.5273 6.21281 14.3718 6.69686 14.9801 7.41953C15.5883 8.14205 15.9213 9.05648 15.92 10.0009C15.9196 11.5313 14.7849 12.5419 13.9747 13.0821C13.5391 13.3725 13.1106 13.586 12.7949 13.7263C12.6356 13.7971 12.5015 13.8508 12.4049 13.8876C12.3565 13.9061 12.3173 13.9203 12.2887 13.9305L12.254 13.9427L12.2429 13.9464L12.239 13.9478L12.2375 13.9483L12.2368 13.9485C12.2365 13.9486 12.2362 13.9487 11.9332 13.0395L12.2362 13.9487C11.7123 14.1233 11.146 13.8402 10.9713 13.3162C10.7969 12.793 11.0791 12.2274 11.6017 12.052L11.6033 12.0515L11.6187 12.0461C11.6341 12.0406 11.6593 12.0315 11.6929 12.0186C11.7604 11.993 11.8606 11.9529 11.9826 11.8987C12.2295 11.789 12.5509 11.6275 12.8653 11.418C13.5549 10.9582 13.92 10.4691 13.92 10L13.92 9.99851C13.9207 9.52619 13.7542 9.06887 13.4501 8.70753C13.1459 8.34619 12.7236 8.10417 12.2581 8.02432ZM15.92 10.0009V10H14.9201L15.92 10.0015L15.92 10.0009ZM12 16C11.4477 16 11 16.4477 11 17C11 17.5523 11.4477 18 12 18H12.01C12.5623 18 13.01 17.5523 13.01 17C13.01 16.4477 12.5623 16 12.01 16H12Z" fill="#4A4D61"/>
</svg>
