<svg width="24" height="24" viewBox="0 0 24 24" fill="none" xmlns="http://www.w3.org/2000/svg">
<path fill-rule="evenodd" clip-rule="evenodd" d="M12.6139 1.21065C12.2528 0.929788 11.7472 0.929788 11.3861 1.21065L2.38606 8.21065C2.14247 8.40011 2 8.69141 2 9V20C2 20.7957 2.31607 21.5587 2.87868 22.1213C3.44129 22.6839 4.20435 23 5 23H19C19.7957 23 20.5587 22.6839 21.1213 22.1213C21.6839 21.5587 22 20.7957 22 20V9C22 8.69141 21.8575 8.40011 21.6139 8.21065L12.6139 1.21065ZM4 20V9.48909L12 3.26687L20 9.48909V20C20 20.2652 19.8946 20.5196 19.7071 20.7071C19.5196 20.8946 19.2652 21 19 21H16V12C16 11.4477 15.5523 11 15 11H9C8.44772 11 8 11.4477 8 12V21H5C4.73478 21 4.48043 20.8946 4.29289 20.7071C4.10536 20.5196 4 20.2652 4 20ZM10 21H14V13H10V21Z" fill="#5C5D82"/>
</svg>
