<svg width="24" height="24" viewBox="0 0 24 24" fill="none" xmlns="http://www.w3.org/2000/svg">
<path fill-rule="evenodd" clip-rule="evenodd" d="M4.00937 11.1984C4.00937 7.43889 7.05705 4.3912 10.8166 4.3912C14.5761 4.3912 17.6238 7.43889 17.6238 11.1984C17.6238 13.0328 16.8982 14.6977 15.7184 15.9218C15.6855 15.9472 15.6538 15.9749 15.6237 16.0051C15.5935 16.0352 15.5658 16.0669 15.5404 16.0998C14.3163 17.2798 12.6512 18.0056 10.8166 18.0056C7.05705 18.0056 4.00937 14.9579 4.00937 11.1984ZM16.2798 18.0364C14.7825 19.2342 12.8832 19.9505 10.8166 19.9505C5.98291 19.9505 2.06445 16.0321 2.06445 11.1984C2.06445 6.36474 5.98291 2.44629 10.8166 2.44629C15.6502 2.44629 19.5687 6.36474 19.5687 11.1984C19.5687 13.2648 18.8526 15.1639 17.655 16.6611L21.2291 20.2352C21.6089 20.615 21.6089 21.2307 21.2291 21.6105C20.8494 21.9903 20.2337 21.9903 19.8539 21.6105L16.2798 18.0364Z" fill="#050728"/>
</svg>
