<svg width="24" height="24" viewBox="0 0 24 24" fill="none" xmlns="http://www.w3.org/2000/svg">
<path fill-rule="evenodd" clip-rule="evenodd" d="M12 3.00001C7.02944 3.00001 3 7.02944 3 12C3 16.9706 7.02944 21 12 21C16.9706 21 21 16.9706 21 12C21 7.02944 16.9706 3.00001 12 3.00001ZM1 12C1 5.92488 5.92487 1.00001 12 1.00001C18.0751 1.00001 23 5.92488 23 12C23 18.0751 18.0751 23 12 23C5.92487 23 1 18.0751 1 12ZM12 11C12.5523 11 13 11.4477 13 12V16C13 16.5523 12.5523 17 12 17C11.4477 17 11 16.5523 11 16V12C11 11.4477 11.4477 11 12 11ZM12 7.00001C11.4477 7.00001 11 7.44772 11 8.00001C11 8.55229 11.4477 9.00001 12 9.00001H12.01C12.5623 9.00001 13.01 8.55229 13.01 8.00001C13.01 7.44772 12.5623 7.00001 12.01 7.00001H12Z" fill="#5C5D82"/>
</svg>
