<svg width="14" height="14" viewBox="0 0 14 14" fill="none" xmlns="http://www.w3.org/2000/svg">
<path fill-rule="evenodd" clip-rule="evenodd" d="M6.55235 0.272245C6.83388 0.131481 7.16525 0.131481 7.44678 0.272245L13.2801 3.18891C13.6189 3.3583 13.8329 3.70457 13.8329 4.08334C13.8329 4.46211 13.6189 4.80837 13.2801 4.97777L7.44678 7.89443C7.16525 8.0352 6.83388 8.0352 6.55235 7.89443L0.719021 4.97777C0.380237 4.80837 0.166235 4.46211 0.166235 4.08334C0.166235 3.70457 0.380237 3.3583 0.719021 3.18891L6.55235 0.272245ZM3.4023 4.08334L6.99957 5.88197L10.5968 4.08334L6.99957 2.28471L3.4023 4.08334ZM0.271808 9.46946C0.518797 8.97548 1.11947 8.77525 1.61345 9.02224L6.99957 11.7153L12.3857 9.02224C12.8797 8.77525 13.4803 8.97548 13.7273 9.46946C13.9743 9.96344 13.7741 10.5641 13.2801 10.8111L7.44678 13.7278C7.16525 13.8685 6.83388 13.8685 6.55235 13.7278L0.719021 10.8111C0.225043 10.5641 0.0248183 9.96344 0.271808 9.46946ZM1.61345 6.10557C1.11947 5.85858 0.518797 6.05881 0.271807 6.55279C0.0248183 7.04677 0.225043 7.64744 0.719021 7.89443L6.55235 10.8111C6.83388 10.9519 7.16525 10.9519 7.44678 10.8111L13.2801 7.89443C13.7741 7.64744 13.9743 7.04677 13.7273 6.55279C13.4803 6.05881 12.8797 5.85858 12.3857 6.10557L6.99957 8.79863L1.61345 6.10557Z" fill="#E82A45"/>
</svg>
