<svg width="14" height="14" viewBox="0 0 14 14" fill="none" xmlns="http://www.w3.org/2000/svg">
<path fill-rule="evenodd" clip-rule="evenodd" d="M5.91891 0.456891C6.24774 0.267567 6.62053 0.167908 7 0.167908C7.37946 0.167908 7.75226 0.267567 8.08109 0.456891L8.08333 0.458186L12.1628 2.7893L12.1667 2.79151L12.1667 2.79152C12.4246 2.94042 12.6482 3.14044 12.8245 3.37837C12.8747 3.43236 12.9196 3.49278 12.9581 3.5593C12.9904 3.61508 13.0166 3.67268 13.0371 3.73135C13.1766 4.02237 13.2497 4.34156 13.25 4.66569L13.25 4.66671V9.33338L13.25 9.3344C13.2496 9.71436 13.1493 10.0875 12.9592 10.4165C12.769 10.7454 12.4957 11.0186 12.1667 11.2086L12.1628 11.2108L12.1628 11.2108L8.08333 13.5419L8.08119 13.5431C7.87127 13.664 7.64342 13.7484 7.40736 13.7935C7.28294 13.8491 7.14508 13.88 7 13.88C6.85493 13.88 6.71707 13.8491 6.59264 13.7935C6.35658 13.7484 6.12873 13.664 5.9188 13.5431L5.91667 13.5419L1.83719 11.2108L1.83333 11.2086C1.50428 11.0186 1.23098 10.7454 1.04083 10.4165C0.850689 10.0875 0.75039 9.71436 0.75 9.3344L0.75 9.33338V4.66671L0.75 4.66569C0.750333 4.34163 0.823341 4.0225 0.962784 3.73154C0.983281 3.6728 1.00958 3.61514 1.04188 3.5593C1.08039 3.49273 1.12539 3.43226 1.17563 3.37824C1.35184 3.14037 1.57547 2.9404 1.83333 2.79152L1.83719 2.78929L1.83719 2.7893L5.91891 0.456891ZM8 11.286L11.1667 9.47652L11.1677 9.47591C11.1926 9.46132 11.2132 9.44054 11.2276 9.41559C11.2423 9.39029 11.25 9.36158 11.25 9.33235V5.70263L8 7.58264V11.286ZM6 7.58265V11.286L2.83333 9.47652L2.83229 9.47591C2.80744 9.46133 2.7868 9.44055 2.77237 9.41559C2.75779 9.39037 2.75008 9.36177 2.75 9.33264V5.70264L6 7.58265ZM7.08719 2.19245L10.2246 3.98526L6.99999 5.8506L3.77538 3.98527L6.91281 2.19245L6.91281 2.19246L6.91667 2.19024C6.942 2.17561 6.97074 2.16791 7 2.16791C7.02926 2.16791 7.058 2.17561 7.08333 2.19024L7.08333 2.19025L7.08719 2.19245Z" fill="#4A4D61"/>
</svg>
