<svg width="24" height="24" viewBox="0 0 24 24" fill="none" xmlns="http://www.w3.org/2000/svg">
<path fill-rule="evenodd" clip-rule="evenodd" d="M16.9957 1.06666C15.4225 1.05299 13.9069 1.65776 12.7753 2.75071L12.765 2.76083L11.045 4.47083C10.6533 4.86021 10.6515 5.49338 11.0409 5.88504C11.4302 6.2767 12.0634 6.27855 12.4551 5.88916L14.1696 4.18455C14.9235 3.4589 15.9318 3.05749 16.9783 3.06659C18.0271 3.0757 19.0304 3.49638 19.772 4.23801C20.5136 4.97964 20.9343 5.98289 20.9434 7.03168C20.9525 8.07773 20.5515 9.0856 19.8264 9.83938L16.8329 12.8329L16.8328 12.833C16.4273 13.2387 15.9393 13.5524 15.4019 13.7528C14.8645 13.9533 14.2902 14.0359 13.7181 13.9949C13.146 13.9539 12.5894 13.7904 12.086 13.5154C11.5827 13.2404 11.1443 12.8603 10.8008 12.401C10.47 11.9588 9.84329 11.8684 9.40104 12.1992C8.95879 12.53 8.86845 13.1567 9.19926 13.599C9.7146 14.2879 10.3721 14.858 11.1271 15.2705C11.8821 15.683 12.7171 15.9283 13.5752 15.9898C14.4334 16.0512 15.2948 15.9274 16.1009 15.6267C16.9069 15.326 17.6389 14.8555 18.2471 14.2471L18.2473 14.247L21.2471 11.2471L21.2593 11.2347C22.3523 10.1031 22.957 8.58748 22.9434 7.0143C22.9297 5.44112 22.2987 3.93625 21.1862 2.8238C20.0738 1.71135 18.5689 1.08033 16.9957 1.06666ZM10.4248 8.01021C9.56663 7.94875 8.70528 8.07257 7.89917 8.37328C7.09311 8.67396 6.36115 9.14446 5.75291 9.75288L5.75278 9.75301L2.75291 12.7529L2.74073 12.7653C1.64778 13.8969 1.04301 15.4125 1.05668 16.9857C1.07035 18.5589 1.70137 20.0637 2.81382 21.1762C3.92627 22.2886 5.43114 22.9197 7.00432 22.9333C8.5775 22.947 10.0931 22.3422 11.2247 21.2493L11.2371 21.2371L12.9471 19.5271C13.3376 19.1366 13.3376 18.5034 12.9471 18.1129C12.5566 17.7224 11.9234 17.7224 11.5329 18.1129L9.82938 19.8164C9.07561 20.5414 8.06775 20.9425 7.0217 20.9334C5.97291 20.9243 4.96966 20.5036 4.22803 19.762C3.4864 19.0203 3.06572 18.0171 3.05661 16.9683C3.04752 15.9223 3.44857 14.9144 4.17361 14.1606L7.16712 11.1671L7.16725 11.167C7.57276 10.7613 8.06077 10.4476 8.59818 10.2471C9.13558 10.0467 9.70982 9.96413 10.2819 10.0051C10.854 10.0461 11.4107 10.2096 11.914 10.4846C12.4174 10.7596 12.8557 11.1397 13.1993 11.599C13.5301 12.0412 14.1567 12.1316 14.599 11.8008C15.0412 11.4699 15.1316 10.8433 14.8008 10.401C14.2854 9.71206 13.628 9.14199 12.8729 8.72949C12.1179 8.31698 11.283 8.07167 10.4248 8.01021Z" fill="#5C5D82"/>
</svg>
