<svg width="24" height="24" viewBox="0 0 24 24" fill="none" xmlns="http://www.w3.org/2000/svg">
<path fill-rule="evenodd" clip-rule="evenodd" d="M16.9957 1.06663C15.4225 1.05296 13.9069 1.65773 12.7753 2.75068L12.765 2.7608L11.045 4.4708C10.6533 4.86018 10.6515 5.49335 11.0409 5.88501C11.4302 6.27667 12.0634 6.27851 12.4551 5.88913L14.1696 4.18452C14.9235 3.45887 15.9318 3.05746 16.9783 3.06656C18.0271 3.07567 19.0304 3.49635 19.772 4.23798C20.5136 4.97961 20.9343 5.98286 20.9434 7.03165C20.9525 8.0777 20.5515 9.08557 19.8264 9.83934L16.8329 12.8329L16.8328 12.833C16.4273 13.2386 15.9393 13.5523 15.4019 13.7528C14.8645 13.9533 14.2902 14.0358 13.7181 13.9949C13.146 13.9539 12.5894 13.7903 12.086 13.5153C11.5827 13.2403 11.1443 12.8603 10.8008 12.401C10.47 11.9587 9.84329 11.8684 9.40104 12.1992C8.95879 12.53 8.86845 13.1567 9.19926 13.5989C9.7146 14.2879 10.3721 14.858 11.1271 15.2705C11.8821 15.683 12.7171 15.9283 13.5752 15.9897C14.4334 16.0512 15.2948 15.9274 16.1009 15.6267C16.9069 15.326 17.6389 14.8555 18.2471 14.2471L18.2473 14.2469L21.2471 11.2471L21.2593 11.2347C22.3523 10.1031 22.957 8.58745 22.9434 7.01427C22.9297 5.44109 22.2987 3.93621 21.1862 2.82377C20.0738 1.71132 18.5689 1.0803 16.9957 1.06663ZM10.4248 8.01018C9.56663 7.94872 8.70528 8.07254 7.89917 8.37325C7.09311 8.67393 6.36115 9.14443 5.75291 9.75285L5.75278 9.75298L2.75291 12.7529L2.74073 12.7652C1.64778 13.8969 1.04301 15.4125 1.05668 16.9857C1.07035 18.5588 1.70137 20.0637 2.81382 21.1762C3.92627 22.2886 5.43114 22.9196 7.00432 22.9333C8.5775 22.947 10.0931 22.3422 11.2247 21.2493L11.2371 21.2371L12.9471 19.5271C13.3376 19.1365 13.3376 18.5034 12.9471 18.1129C12.5566 17.7223 11.9234 17.7223 11.5329 18.1129L9.82938 19.8164C9.07561 20.5414 8.06775 20.9425 7.0217 20.9334C5.97291 20.9243 4.96966 20.5036 4.22803 19.7619C3.4864 19.0203 3.06572 18.0171 3.05661 16.9683C3.04752 15.9222 3.44857 14.9143 4.17361 14.1606L7.16712 11.1671L7.16725 11.1669C7.57276 10.7613 8.06077 10.4476 8.59818 10.2471C9.13558 10.0466 9.70982 9.9641 10.2819 10.0051C10.854 10.046 11.4107 10.2096 11.914 10.4846C12.4174 10.7596 12.8557 11.1396 13.1993 11.5989C13.5301 12.0412 14.1567 12.1315 14.599 11.8007C15.0412 11.4699 15.1316 10.8432 14.8008 10.401C14.2854 9.71203 13.628 9.14196 12.8729 8.72945C12.1179 8.31695 11.283 8.07164 10.4248 8.01018Z" fill="white"/>
</svg>
