<svg width="10" height="10" viewBox="0 0 10 10" fill="none" xmlns="http://www.w3.org/2000/svg">
<path fill-rule="evenodd" clip-rule="evenodd" d="M5.99999 2.08331C5.99999 1.53103 5.55227 1.08331 4.99999 1.08331C4.44771 1.08331 3.99999 1.53103 3.99999 2.08331V3.99999H2.08331C1.53103 3.99999 1.08331 4.44771 1.08331 4.99999C1.08331 5.55227 1.53103 5.99999 2.08331 5.99999H3.99999V7.91665C3.99999 8.46893 4.44771 8.91665 4.99999 8.91665C5.55227 8.91665 5.99999 8.46893 5.99999 7.91665V5.99999H7.91665C8.46893 5.99999 8.91665 5.55227 8.91665 4.99999C8.91665 4.44771 8.46893 3.99999 7.91665 3.99999H5.99999V2.08331Z" fill="#4A4D61"/>
</svg>
