<svg width="24" height="24" viewBox="0 0 24 24" fill="none" xmlns="http://www.w3.org/2000/svg">
<path fill-rule="evenodd" clip-rule="evenodd" d="M3 5C2.44772 5 2 5.44772 2 6C2 6.55228 2.44772 7 3 7H3.01C3.56228 7 4.01 6.55228 4.01 6C4.01 5.44772 3.56228 5 3.01 5H3ZM7.99999 5C7.44771 5 6.99999 5.44772 6.99999 6C6.99999 6.55228 7.44771 7 7.99999 7H21C21.5523 7 22 6.55228 22 6C22 5.44772 21.5523 5 21 5H7.99999ZM7.99999 11C7.44771 11 6.99999 11.4477 6.99999 12C6.99999 12.5523 7.44771 13 7.99999 13H21C21.5523 13 22 12.5523 22 12C22 11.4477 21.5523 11 21 11H7.99999ZM6.99999 18C6.99999 17.4477 7.44771 17 7.99999 17H21C21.5523 17 22 17.4477 22 18C22 18.5523 21.5523 19 21 19H7.99999C7.44771 19 6.99999 18.5523 6.99999 18ZM2 12C2 11.4477 2.44772 11 3 11H3.01C3.56228 11 4.01 11.4477 4.01 12C4.01 12.5523 3.56228 13 3.01 13H3C2.44772 13 2 12.5523 2 12ZM3 17C2.44772 17 2 17.4477 2 18C2 18.5523 2.44772 19 3 19H3.01C3.56228 19 4.01 18.5523 4.01 18C4.01 17.4477 3.56228 17 3.01 17H3Z" fill="#E82A45"/>
</svg>
