<svg width="24" height="24" viewBox="0 0 24 24" fill="none" xmlns="http://www.w3.org/2000/svg">
<path fill-rule="evenodd" clip-rule="evenodd" d="M5 4C4.73478 4 4.48043 4.10536 4.29289 4.29289C4.10536 4.48043 4 4.73478 4 5V19C4 19.2652 4.10536 19.5196 4.29289 19.7071C4.48043 19.8946 4.73478 20 5 20H9C9.55228 20 10 20.4477 10 21C10 21.5523 9.55228 22 9 22H5C4.20435 22 3.44129 21.6839 2.87868 21.1213C2.31607 20.5587 2 19.7957 2 19V5C2 4.20435 2.31607 3.44129 2.87868 2.87868C3.44129 2.31607 4.20435 2 5 2H9C9.55228 2 10 2.44772 10 3C10 3.55228 9.55228 4 9 4H5ZM15.2929 6.29289C15.6834 5.90236 16.3166 5.90236 16.7071 6.29289L21.7037 11.2895C21.7158 11.3015 21.7277 11.3139 21.7392 11.3265C21.8138 11.4083 21.8724 11.4994 21.915 11.5959C21.9696 11.7194 22 11.8562 22 12C22 12.1459 21.9688 12.2844 21.9126 12.4094C21.8723 12.4994 21.818 12.5846 21.7497 12.6619C21.7345 12.679 21.7189 12.6955 21.7026 12.7116L16.7071 17.7071C16.3166 18.0976 15.6834 18.0976 15.2929 17.7071C14.9023 17.3166 14.9023 16.6834 15.2929 16.2929L18.5858 13H9C8.44772 13 8 12.5523 8 12C8 11.4477 8.44772 11 9 11H18.5858L15.2929 7.7071C14.9023 7.31658 14.9023 6.68341 15.2929 6.29289Z" fill="#5C5D82"/>
</svg>
