<svg width="133" height="39" viewBox="0 0 133 39" fill="none" xmlns="http://www.w3.org/2000/svg">
<path d="M20.9894 2.6427H1.16943V10.5707H20.9894V2.6427Z" fill="#E82A45"/>
<path d="M20.9894 14.536H1.16943V22.464H20.9894V14.536Z" fill="#E82A45"/>
<path d="M32.8813 34.356V2.6427L24.9534 2.6427V34.356H32.8813Z" fill="#E82A45"/>
<path d="M20.9894 26.428H1.16943V34.356H20.9894V26.428Z" fill="#E82A45"/>
<path d="M53.0534 13.1934H47.12V10.1414H52.5854V7.9147H47.12V4.8707H53.028V2.6427H44.4187V15.42H53.0534V13.1934Z" fill="white"/>
<path d="M61.3067 9.79329V15.42H63.9641V9.31863C63.9812 8.65341 63.8405 7.9936 63.5534 7.39329C63.298 6.87538 62.8972 6.4431 62.4001 6.14929C61.8702 5.84906 61.2689 5.69793 60.6601 5.71196C60.0195 5.6924 59.3876 5.86315 58.8441 6.20263C58.3545 6.51741 57.9803 6.98244 57.7774 7.52796H57.6654V5.83729H55.1321V15.42H57.7894V9.87996C57.7832 9.51394 57.8636 9.15164 58.0241 8.82263C58.1651 8.5421 58.3865 8.30999 58.6601 8.15596C58.9477 7.99742 59.2717 7.91654 59.6001 7.92129C60.1334 7.92129 60.5512 8.08663 60.8534 8.41729C61.1556 8.74796 61.3067 9.20663 61.3067 9.79329Z" fill="white"/>
<path d="M71.3332 15.3014L70.9146 13.324L70.6279 13.3774C70.5043 13.3997 70.3789 13.4109 70.2532 13.4107C70.0927 13.4139 69.933 13.3868 69.7826 13.3307C69.6472 13.276 69.5353 13.1755 69.4666 13.0467C69.3828 12.8682 69.3443 12.6717 69.3545 12.4747V7.83338H71.1586V5.83338H69.3479V3.54138H66.6905V5.83738H65.3799V7.83738H66.6905V12.8254C66.6905 13.4538 66.8217 13.9734 67.0839 14.384C67.3516 14.7983 67.7437 15.1171 68.2039 15.2947C68.7395 15.4996 69.3129 15.5869 69.8852 15.5507C70.1807 15.5445 70.4749 15.5101 70.7639 15.448C71.0052 15.392 71.1999 15.3427 71.3332 15.3014Z" fill="white"/>
<path d="M77.1466 15.6066C77.8613 15.62 78.5718 15.4964 79.24 15.2426C79.8089 15.0239 80.3176 14.6729 80.724 14.2186C81.1093 13.7795 81.3732 13.2472 81.4893 12.6746L79.0306 12.5133C78.9448 12.7443 78.8081 12.953 78.6306 13.1239C78.4503 13.2934 78.2351 13.4213 78 13.4986C77.7383 13.5837 77.4645 13.6256 77.1893 13.6226C76.7864 13.6332 76.388 13.5365 76.0346 13.3426C75.7111 13.1553 75.4496 12.8772 75.2826 12.5426C75.0973 12.1599 75.0059 11.7384 75.016 11.3133H81.5493V10.5786C81.5634 9.85264 81.4469 9.13004 81.2053 8.44528C81.001 7.87517 80.6743 7.35678 80.248 6.92661C79.8401 6.525 79.3509 6.21539 78.8133 6.01861C78.2462 5.81347 77.6471 5.71098 77.044 5.71595C76.1841 5.69535 75.335 5.91119 74.5893 6.33995C73.8946 6.75403 73.333 7.35826 72.9706 8.08128C72.5765 8.88506 72.3808 9.77161 72.4 10.6666C72.4 11.6773 72.5911 12.5519 72.9733 13.2906C73.338 14.0098 73.9078 14.6047 74.6106 14.9999C75.3155 15.4053 76.1609 15.6075 77.1466 15.6066ZM76.0146 7.97462C76.3379 7.78572 76.7069 7.68932 77.0813 7.69595C77.4377 7.68879 77.7897 7.7762 78.1013 7.94928C78.3941 8.11217 78.636 8.35311 78.8 8.64528C78.9705 8.95631 79.0565 9.30664 79.0493 9.66128H75.0253C75.0382 9.32951 75.1296 9.00553 75.292 8.71595C75.4627 8.40904 75.7122 8.15316 76.0146 7.97462Z" fill="white"/>
<path d="M86.9252 8.26665C87.2462 8.09391 87.6062 8.00667 87.9706 8.01331C88.1731 8.01469 88.3753 8.02939 88.5759 8.05731C88.7506 8.07757 88.9235 8.111 89.0932 8.15731V5.79331C88.9617 5.76125 88.828 5.73852 88.6932 5.72531C88.5503 5.70881 88.4065 5.70036 88.2626 5.69998C87.7512 5.69212 87.2515 5.85336 86.8412 6.15865C86.4061 6.49873 86.0965 6.9739 85.9612 7.50931H85.8612V5.83731H83.2786V15.42H85.9372V9.99998C85.9304 9.63684 86.0226 9.27869 86.2039 8.96398C86.3762 8.67006 86.6256 8.42891 86.9252 8.26665Z" fill="white"/>
<path d="M99.2906 13.3453C99.6337 12.612 99.8053 11.7107 99.8053 10.6413C99.8053 9.54267 99.6275 8.62845 99.272 7.89867C98.9685 7.22655 98.4767 6.65686 97.856 6.25867C97.2761 5.89741 96.6058 5.70786 95.9226 5.712C95.4595 5.69484 94.9988 5.78615 94.5773 5.97867C94.2433 6.13826 93.946 6.36524 93.704 6.64534C93.5005 6.88843 93.331 7.158 93.2 7.44667H93.0813V5.83733H90.46V19.0133H93.1173V13.8853H93.2C93.3341 14.1732 93.5107 14.4393 93.724 14.6747C93.9707 14.9481 94.2712 15.1678 94.6066 15.32C95.02 15.5016 95.4686 15.589 95.92 15.576C96.6193 15.5843 97.3057 15.3878 97.8946 15.0107C98.5107 14.6017 98.9955 14.0234 99.2906 13.3453ZM96.8573 12.104C96.7264 12.4936 96.4901 12.8392 96.1746 13.1027C95.8561 13.3335 95.4727 13.4578 95.0793 13.4578C94.6859 13.4578 94.3025 13.3335 93.984 13.1027C93.6677 12.8438 93.4303 12.5015 93.2986 12.1147C93.1335 11.6368 93.055 11.1334 93.0666 10.628C93.0558 10.1231 93.1362 9.62035 93.304 9.144C93.4347 8.76143 93.6714 8.42387 93.9866 8.17067C94.3096 7.94563 94.6942 7.82598 95.0879 7.82813C95.4815 7.83028 95.8648 7.95411 96.1853 8.18267C96.5 8.44155 96.736 8.78332 96.8666 9.16933C97.0281 9.63835 97.1062 10.132 97.0973 10.628C97.1045 11.1303 97.0233 11.6299 96.8573 12.104Z" fill="white"/>
<path d="M106.549 5.69998C106.037 5.69213 105.537 5.85335 105.127 6.15865C104.691 6.49873 104.382 6.9739 104.247 7.50931H104.147V5.83731H101.571V15.42H104.228V9.99998C104.222 9.63689 104.314 9.27887 104.495 8.96398C104.668 8.67047 104.918 8.42948 105.217 8.26665C105.538 8.09363 105.898 8.00637 106.263 8.01331C106.465 8.0147 106.666 8.02939 106.867 8.05731C107.042 8.07759 107.215 8.11102 107.385 8.15731V5.79331C107.254 5.76144 107.12 5.73872 106.985 5.72531C106.84 5.70866 106.695 5.7002 106.549 5.69998Z" fill="white"/>
<path d="M111.408 5.83728H108.751V15.4199H111.408V5.83728Z" fill="white"/>
<path d="M110.087 1.9133C109.71 1.90819 109.347 2.05195 109.076 2.3133C108.942 2.43238 108.835 2.57841 108.762 2.7418C108.689 2.90519 108.651 3.08223 108.651 3.2613C108.651 3.44037 108.689 3.61742 108.762 3.7808C108.835 3.94419 108.942 4.09022 109.076 4.2093C109.353 4.46474 109.715 4.60661 110.091 4.60661C110.468 4.60661 110.83 4.46474 111.107 4.2093C111.239 4.08954 111.345 3.94328 111.418 3.77999C111.491 3.61669 111.528 3.43999 111.528 3.2613C111.528 3.08261 111.491 2.90591 111.418 2.74261C111.345 2.57932 111.239 2.43306 111.107 2.3133C110.833 2.05053 110.466 1.90674 110.087 1.9133Z" fill="white"/>
<path d="M118.951 9.85462L117.217 9.50528C116.772 9.41062 116.457 9.28262 116.275 9.12528C116.188 9.05536 116.119 8.96694 116.071 8.86655C116.024 8.76615 115.999 8.65636 116 8.54528C116.001 8.40256 116.041 8.26278 116.115 8.14121C116.19 8.01964 116.297 7.92096 116.424 7.85595C116.741 7.6753 117.102 7.58665 117.467 7.59995C117.741 7.59271 118.014 7.64502 118.267 7.75328C118.472 7.84452 118.655 7.9813 118.8 8.15328C118.934 8.31686 119.026 8.51107 119.067 8.71862L121.5 8.56795C121.455 8.15348 121.323 7.75316 121.113 7.39314C120.903 7.03311 120.619 6.72149 120.28 6.47862C119.584 5.96662 118.631 5.71062 117.42 5.71062C116.689 5.69533 115.962 5.81838 115.277 6.07328C114.72 6.27859 114.232 6.63559 113.867 7.10395C113.526 7.56327 113.349 8.12317 113.364 8.69462C113.353 9.01972 113.407 9.34373 113.525 9.64713C113.642 9.95053 113.82 10.227 114.047 10.46C114.503 10.9213 115.198 11.2457 116.133 11.4333L117.793 11.764C118.124 11.8125 118.44 11.9351 118.717 12.1226C118.811 12.1912 118.888 12.2808 118.941 12.3843C118.994 12.4878 119.022 12.6023 119.023 12.7186C119.018 12.8633 118.976 13.0043 118.9 13.1275C118.824 13.2506 118.717 13.3515 118.589 13.42C118.234 13.6038 117.839 13.6971 117.439 13.6918C117.039 13.6864 116.646 13.5825 116.296 13.3893C116.145 13.2888 116.017 13.1587 115.918 13.0069C115.82 12.8552 115.753 12.6849 115.723 12.5066L113.108 12.64C113.161 13.0744 113.306 13.4925 113.534 13.8664C113.762 14.2402 114.066 14.5612 114.428 14.808C115.178 15.3413 116.187 15.608 117.456 15.608C118.21 15.621 118.96 15.4851 119.661 15.208C120.253 14.9783 120.774 14.5966 121.172 14.1013C121.539 13.6293 121.734 13.0459 121.724 12.448C121.736 12.1363 121.681 11.8257 121.563 11.5372C121.444 11.2487 121.265 10.9891 121.037 10.776C120.579 10.3537 119.883 10.0466 118.951 9.85462Z" fill="white"/>
<path d="M132.164 11.308V10.5787C132.178 9.8528 132.062 9.13021 131.821 8.44536C131.616 7.8755 131.29 7.35721 130.864 6.9267C130.456 6.52508 129.967 6.21547 129.429 6.0187C128.862 5.81377 128.263 5.71129 127.66 5.71603C126.799 5.69302 125.947 5.90752 125.2 6.33603C124.507 6.7505 123.947 7.35476 123.587 8.07736C123.19 8.882 122.993 9.77002 123.012 10.6667C123.012 11.6774 123.203 12.552 123.587 13.2907C123.951 14.0099 124.521 14.6048 125.224 15C125.935 15.4009 126.783 15.6014 127.767 15.6014C128.481 15.6149 129.191 15.4913 129.859 15.2374C130.428 15.0186 130.937 14.6677 131.344 14.2134C131.729 13.7745 131.993 13.2421 132.108 12.6694L129.651 12.508C129.565 12.739 129.428 12.9477 129.251 13.1187C129.071 13.2881 128.856 13.416 128.621 13.4934C128.359 13.5786 128.085 13.6205 127.809 13.6174C127.407 13.6278 127.009 13.5312 126.656 13.3374C126.332 13.1501 126.071 12.8719 125.904 12.5374C125.718 12.1548 125.627 11.7332 125.637 11.308H132.164ZM126.633 7.9747C126.957 7.78605 127.326 7.68967 127.7 7.69603C128.056 7.68887 128.408 7.77628 128.72 7.94936C129.009 8.11362 129.248 8.35443 129.409 8.64536C129.58 8.9564 129.666 9.30672 129.659 9.66136H125.645C125.659 9.32969 125.75 9.00584 125.912 8.71603C126.083 8.4096 126.332 8.15383 126.633 7.9747Z" fill="white"/>
<path d="M47.12 21.5786H44.4187V34.3559H47.12V21.5786Z" fill="white"/>
<path d="M56.5654 25.0853C56.0354 24.7855 55.4341 24.6348 54.8254 24.6493C54.185 24.6293 53.553 24.7996 53.0094 25.1386C52.5198 25.4534 52.1456 25.9184 51.9427 26.4639H51.8307V24.7733H49.2974V34.356H51.9547V28.816C51.9485 28.4499 52.0289 28.0876 52.1894 27.7586C52.3308 27.4784 52.5521 27.2464 52.8254 27.0919C53.115 26.9341 53.4409 26.8546 53.7707 26.8613C54.304 26.8613 54.7218 27.0266 55.024 27.3573C55.3262 27.6879 55.476 28.1466 55.4734 28.7333V34.36H58.1334V28.2546C58.1507 27.5892 58.0095 26.9293 57.7214 26.3293C57.4648 25.8113 57.0632 25.3791 56.5654 25.0853Z" fill="white"/>
<path d="M65.6426 28.7907L63.9093 28.4414C63.4648 28.3471 63.151 28.2205 62.9679 28.0614C62.8814 27.9916 62.8117 27.9033 62.7642 27.8028C62.7166 27.7024 62.6924 27.5925 62.6933 27.4814C62.6943 27.3387 62.7343 27.199 62.8091 27.0775C62.8838 26.956 62.9904 26.8573 63.1173 26.792C63.4335 26.6106 63.7942 26.521 64.1586 26.5334C64.4331 26.5259 64.706 26.5778 64.9586 26.6854C65.1668 26.7757 65.3515 26.9126 65.4986 27.0854C65.6327 27.2489 65.7243 27.4431 65.7653 27.6507L68.1986 27.5C68.153 27.0857 68.0209 26.6856 67.8107 26.3257C67.6005 25.9657 67.317 25.654 66.9786 25.4107C66.2808 24.8987 65.3275 24.6431 64.1186 24.644C63.3875 24.6283 62.6601 24.7509 61.9746 25.0054C61.4157 25.2094 60.9252 25.566 60.5586 26.0347C60.2194 26.4945 60.043 27.0542 60.0573 27.6254C60.0454 27.9505 60.0999 28.2747 60.2172 28.5782C60.3346 28.8816 60.5124 29.1581 60.7399 29.3907C61.195 29.852 61.8906 30.1765 62.8266 30.364L64.4866 30.6947C64.8171 30.7438 65.1324 30.8664 65.4093 31.0534C65.5034 31.1217 65.5801 31.2113 65.6332 31.3148C65.6862 31.4184 65.7141 31.533 65.7146 31.6494C65.7107 31.7941 65.6686 31.9353 65.5925 32.0584C65.5164 32.1816 65.409 32.2825 65.2813 32.3507C64.9262 32.5345 64.5312 32.6279 64.1314 32.6225C63.7316 32.6172 63.3393 32.5133 62.9893 32.32C62.8386 32.2196 62.7099 32.0896 62.6111 31.9378C62.5123 31.7861 62.4454 31.6158 62.4146 31.4374L59.8013 31.5707C59.8536 32.0052 59.9984 32.4235 60.2258 32.7975C60.4533 33.1714 60.7581 33.4924 61.1199 33.7387C61.8702 34.272 62.8799 34.5387 64.1493 34.5387C64.9035 34.5517 65.653 34.4158 66.3546 34.1387C66.9464 33.9117 67.4679 33.5327 67.8666 33.04C68.2338 32.568 68.4286 31.9846 68.4186 31.3867C68.4311 31.0751 68.3763 30.7646 68.258 30.476C68.1398 30.1875 67.9608 29.9279 67.7333 29.7147C67.271 29.2907 66.5741 28.9827 65.6426 28.7907Z" fill="white"/>
<path d="M72.7479 24.7733H70.0906V34.356H72.7479V24.7733Z" fill="white"/>
<path d="M71.4254 20.8494C71.049 20.8446 70.6858 20.9883 70.4147 21.2494C70.2813 21.3688 70.1746 21.515 70.1015 21.6785C70.0285 21.842 69.9907 22.019 69.9907 22.198C69.9907 22.3771 70.0285 22.5541 70.1015 22.7176C70.1746 22.8811 70.2813 23.0273 70.4147 23.1467C70.6915 23.4013 71.0539 23.5426 71.43 23.5426C71.8061 23.5426 72.1685 23.4013 72.4454 23.1467C72.578 23.0268 72.6841 22.8805 72.7566 22.7171C72.8292 22.5537 72.8667 22.3768 72.8667 22.198C72.8667 22.0193 72.8292 21.8424 72.7566 21.679C72.6841 21.5156 72.578 21.3693 72.4454 21.2494C72.1718 20.9861 71.805 20.8422 71.4254 20.8494Z" fill="white"/>
<path d="M81.2321 26.3826H81.1334C80.9949 26.0993 80.8221 25.8342 80.6187 25.5933C80.3759 25.3124 80.0771 25.0853 79.7414 24.9266C79.3193 24.7344 78.8582 24.6431 78.3947 24.6599C77.7106 24.654 77.0389 24.8421 76.4574 25.2026C75.8381 25.5987 75.3471 26.1661 75.0441 26.8359C74.6885 27.5639 74.5107 28.471 74.5107 29.5573C74.5107 30.6177 74.6845 31.4942 75.0321 32.1866C75.3339 32.8299 75.8234 33.3667 76.4361 33.7266C77.0357 34.0614 77.7134 34.2311 78.4001 34.2186C78.8473 34.2292 79.2924 34.1531 79.7107 33.9946C80.0465 33.8636 80.3522 33.6658 80.6094 33.4133C80.8286 33.1958 81.0062 32.94 81.1334 32.6586H81.2454V34.4119C81.2454 35.0404 81.057 35.4919 80.6801 35.7666C80.2596 36.0535 79.758 36.1974 79.2494 36.1773C78.9156 36.186 78.5829 36.1355 78.2667 36.0279C78.0272 35.9456 77.8071 35.8149 77.6201 35.6439C77.4699 35.504 77.3493 35.3353 77.2654 35.1479L74.8067 35.4786C74.9206 35.9726 75.1641 36.4273 75.5121 36.7959C75.9202 37.2206 76.4227 37.5431 76.9787 37.7373C77.6889 37.9864 78.4384 38.1047 79.1907 38.0866C80.0191 38.1017 80.843 37.962 81.6201 37.6746C82.2779 37.435 82.8531 37.0115 83.2774 36.4546C83.6765 35.9159 83.8761 35.2493 83.8761 34.4546V24.7733H81.2361L81.2321 26.3826ZM81.0174 30.9773C80.8824 31.345 80.6439 31.6659 80.3307 31.9013C80.0049 32.1131 79.6247 32.2259 79.2361 32.2259C78.8475 32.2259 78.4672 32.1131 78.1414 31.9013C77.8292 31.6625 77.593 31.3383 77.4614 30.9679C77.2959 30.5091 77.2168 30.0236 77.2281 29.5359C77.2188 29.0456 77.297 28.5576 77.4587 28.0946C77.5888 27.7116 77.8245 27.3733 78.1387 27.1186C78.4593 26.8912 78.8422 26.7683 79.2353 26.7666C79.6283 26.765 80.0122 26.8846 80.3347 27.1093C80.6492 27.3598 80.8867 27.6939 81.0201 28.0733C81.1883 28.5435 81.2688 29.0406 81.2574 29.5399C81.2685 30.0299 81.1871 30.5175 81.0174 30.9773Z" fill="white"/>
<path d="M93.2947 25.0826C92.7632 24.7845 92.1613 24.6348 91.552 24.6493C90.824 24.6493 90.2187 24.8102 89.736 25.1319C89.254 25.4538 88.8869 25.9208 88.688 26.4653H88.576V21.5786H86V34.3559H88.6573V28.8159C88.6506 28.4493 88.733 28.0865 88.8973 27.7586C89.0433 27.4772 89.2693 27.2453 89.5467 27.0919C89.8406 26.9339 90.1704 26.8544 90.504 26.8613C91.0436 26.8613 91.4645 27.0253 91.7667 27.3533C92.0689 27.6813 92.2178 28.1413 92.2134 28.7333V34.3599H94.8707V28.2546C94.8926 27.5876 94.7526 26.9251 94.4627 26.3239C94.2029 25.805 93.7969 25.3735 93.2947 25.0826Z" fill="white"/>
<path d="M101.527 32.3133C101.403 32.3357 101.278 32.3469 101.152 32.3466C100.992 32.3499 100.832 32.3227 100.681 32.2666C100.546 32.2119 100.435 32.1113 100.367 31.9826C100.283 31.8045 100.245 31.6085 100.255 31.412V26.7693H102.057V24.7693H100.255V22.4773H97.6001V24.7733H96.2908V26.7733H97.6001V31.7653C97.6001 32.3929 97.7312 32.9124 97.9934 33.324C98.2618 33.7377 98.6537 34.0563 99.1134 34.2346C99.649 34.4395 100.222 34.5268 100.795 34.4906C101.091 34.4844 101.385 34.45 101.675 34.388C101.916 34.332 102.103 34.2826 102.236 34.2413L101.813 32.2666L101.527 32.3133Z" fill="white"/>
</svg>
