<svg width="133" height="39" viewBox="0 0 133 39" fill="none" xmlns="http://www.w3.org/2000/svg">
<path d="M20.9894 2.64266H1.16943V10.5707H20.9894V2.64266Z" fill="#E82A45"/>
<path d="M20.9894 14.536H1.16943V22.464H20.9894V14.536Z" fill="#E82A45"/>
<path d="M32.8813 34.356V2.64266L24.9534 2.64266V34.356H32.8813Z" fill="#E82A45"/>
<path d="M20.9894 26.428H1.16943V34.356H20.9894V26.428Z" fill="#E82A45"/>
<path d="M53.0534 13.1933H47.12V10.1413H52.5854V7.91466H47.12V4.87066H53.028V2.64266H44.4187V15.42H53.0534V13.1933Z" fill="#050728"/>
<path d="M61.3067 9.79333V15.42H63.9641V9.31866C63.9812 8.65345 63.8405 7.99364 63.5534 7.39333C63.298 6.87542 62.8972 6.44314 62.4001 6.14933C61.8702 5.8491 61.2689 5.69797 60.6601 5.712C60.0195 5.69244 59.3876 5.86319 58.8441 6.20266C58.3545 6.51745 57.9803 6.98248 57.7774 7.528H57.6654V5.83733H55.1321V15.42H57.7894V9.88C57.7832 9.51398 57.8636 9.15167 58.0241 8.82266C58.1651 8.54214 58.3865 8.31003 58.6601 8.156C58.9477 7.99746 59.2717 7.91658 59.6001 7.92133C60.1334 7.92133 60.5512 8.08666 60.8534 8.41733C61.1556 8.748 61.3067 9.20666 61.3067 9.79333Z" fill="#050728"/>
<path d="M71.3332 15.3013L70.9146 13.324L70.6279 13.3773C70.5043 13.3997 70.3789 13.4108 70.2532 13.4107C70.0927 13.4139 69.933 13.3867 69.7826 13.3307C69.6472 13.276 69.5353 13.1755 69.4666 13.0467C69.3828 12.8681 69.3443 12.6716 69.3545 12.4747V7.83334H71.1586V5.83334H69.3479V3.54134H66.6905V5.83734H65.3799V7.83734H66.6905V12.8253C66.6905 13.4538 66.8217 13.9733 67.0839 14.384C67.3516 14.7982 67.7437 15.117 68.2039 15.2947C68.7395 15.4995 69.3129 15.5868 69.8852 15.5507C70.1807 15.5444 70.4749 15.51 70.7639 15.448C71.0052 15.392 71.1999 15.3427 71.3332 15.3013Z" fill="#050728"/>
<path d="M77.1466 15.6067C77.8613 15.62 78.5718 15.4965 79.24 15.2427C79.8089 15.0239 80.3176 14.6729 80.724 14.2187C81.1093 13.7795 81.3732 13.2473 81.4893 12.6747L79.0306 12.5133C78.9448 12.7443 78.8081 12.953 78.6306 13.124C78.4503 13.2935 78.2351 13.4214 78 13.4987C77.7383 13.5837 77.4645 13.6256 77.1893 13.6227C76.7864 13.6332 76.388 13.5366 76.0346 13.3427C75.7111 13.1554 75.4496 12.8772 75.2826 12.5427C75.0973 12.1599 75.0059 11.7385 75.016 11.3133H81.5493V10.5787C81.5634 9.85268 81.4469 9.13009 81.2053 8.44533C81.001 7.87522 80.6743 7.35682 80.248 6.92666C79.8401 6.52505 79.3509 6.21544 78.8133 6.01866C78.2462 5.81352 77.6471 5.71103 77.044 5.71599C76.1841 5.69539 75.335 5.91123 74.5893 6.33999C73.8946 6.75408 73.333 7.35831 72.9706 8.08133C72.5765 8.8851 72.3808 9.77166 72.4 10.6667C72.4 11.6773 72.5911 12.552 72.9733 13.2907C73.338 14.0099 73.9078 14.6047 74.6106 15C75.3155 15.4053 76.1609 15.6076 77.1466 15.6067ZM76.0146 7.97466C76.3379 7.78576 76.7069 7.68936 77.0813 7.69599C77.4377 7.68883 77.7897 7.77624 78.1013 7.94933C78.3941 8.11222 78.636 8.35315 78.8 8.64533C78.9705 8.95636 79.0565 9.30668 79.0493 9.66133H75.0253C75.0382 9.32956 75.1296 9.00558 75.292 8.71599C75.4627 8.40909 75.7122 8.15321 76.0146 7.97466Z" fill="#050728"/>
<path d="M86.9252 8.26665C87.2462 8.09392 87.6062 8.00668 87.9706 8.01332C88.1731 8.0147 88.3753 8.0294 88.5759 8.05732C88.7506 8.07758 88.9235 8.11101 89.0932 8.15732V5.79332C88.9617 5.76125 88.828 5.73853 88.6932 5.72532C88.5503 5.70882 88.4065 5.70036 88.2626 5.69999C87.7512 5.69213 87.2515 5.85337 86.8412 6.15865C86.4061 6.49874 86.0965 6.97391 85.9612 7.50932H85.8612V5.83732H83.2786V15.42H85.9372V9.99999C85.9304 9.63685 86.0226 9.2787 86.2039 8.96399C86.3762 8.67007 86.6256 8.42891 86.9252 8.26665Z" fill="#050728"/>
<path d="M99.2906 13.3453C99.6337 12.612 99.8053 11.7107 99.8053 10.6413C99.8053 9.54265 99.6275 8.62843 99.272 7.89865C98.9685 7.22653 98.4767 6.65685 97.856 6.25865C97.2761 5.89739 96.6058 5.70785 95.9226 5.71199C95.4595 5.69482 94.9988 5.78614 94.5773 5.97865C94.2433 6.13824 93.946 6.36523 93.704 6.64532C93.5005 6.88841 93.331 7.15798 93.2 7.44665H93.0813V5.83732H90.46V19.0133H93.1173V13.8853H93.2C93.3341 14.1732 93.5107 14.4393 93.724 14.6747C93.9707 14.9481 94.2712 15.1678 94.6066 15.32C95.02 15.5015 95.4686 15.589 95.92 15.576C96.6193 15.5843 97.3057 15.3878 97.8946 15.0107C98.5107 14.6016 98.9955 14.0233 99.2906 13.3453ZM96.8573 12.104C96.7264 12.4936 96.4901 12.8392 96.1746 13.1027C95.8561 13.3335 95.4727 13.4578 95.0793 13.4578C94.6859 13.4578 94.3025 13.3335 93.984 13.1027C93.6677 12.8438 93.4303 12.5015 93.2986 12.1147C93.1335 11.6368 93.055 11.1334 93.0666 10.628C93.0558 10.1231 93.1362 9.62033 93.304 9.14399C93.4347 8.76141 93.6714 8.42386 93.9866 8.17065C94.3096 7.94561 94.6942 7.82596 95.0879 7.82811C95.4815 7.83026 95.8648 7.9541 96.1853 8.18265C96.5 8.44154 96.736 8.78331 96.8666 9.16932C97.0281 9.63833 97.1062 10.132 97.0973 10.628C97.1045 11.1303 97.0233 11.6299 96.8573 12.104Z" fill="#050728"/>
<path d="M106.549 5.7C106.037 5.69214 105.537 5.85337 105.127 6.15866C104.691 6.49874 104.382 6.97392 104.247 7.50933H104.147V5.83733H101.571V15.42H104.228V9.99999C104.222 9.63691 104.314 9.27889 104.495 8.96399C104.668 8.67049 104.918 8.42949 105.217 8.26666C105.538 8.09365 105.898 8.00639 106.263 8.01333C106.465 8.01471 106.666 8.02941 106.867 8.05733C107.042 8.07761 107.215 8.11104 107.385 8.15733V5.79333C107.254 5.76146 107.12 5.73874 106.985 5.72533C106.84 5.70868 106.695 5.70022 106.549 5.7Z" fill="#050728"/>
<path d="M111.408 5.83733H108.751V15.42H111.408V5.83733Z" fill="#050728"/>
<path d="M110.087 1.91333C109.71 1.90823 109.347 2.05198 109.076 2.31333C108.942 2.43241 108.835 2.57844 108.762 2.74183C108.689 2.90522 108.651 3.08226 108.651 3.26133C108.651 3.4404 108.689 3.61745 108.762 3.78083C108.835 3.94422 108.942 4.09025 109.076 4.20933C109.353 4.46477 109.715 4.60664 110.091 4.60664C110.468 4.60664 110.83 4.46477 111.107 4.20933C111.239 4.08957 111.345 3.94332 111.418 3.78002C111.491 3.61672 111.528 3.44002 111.528 3.26133C111.528 3.08264 111.491 2.90594 111.418 2.74264C111.345 2.57935 111.239 2.43309 111.107 2.31333C110.833 2.05056 110.466 1.90677 110.087 1.91333Z" fill="#050728"/>
<path d="M118.951 9.85466L117.217 9.50533C116.772 9.41066 116.457 9.28266 116.275 9.12533C116.188 9.05541 116.119 8.96698 116.071 8.86659C116.024 8.7662 115.999 8.65641 116 8.54533C116.001 8.40261 116.041 8.26282 116.115 8.14125C116.19 8.01968 116.297 7.921 116.424 7.856C116.741 7.67535 117.102 7.58669 117.467 7.6C117.741 7.59276 118.014 7.64507 118.267 7.75333C118.472 7.84457 118.655 7.98134 118.8 8.15333C118.934 8.3169 119.026 8.51111 119.067 8.71866L121.5 8.568C121.455 8.15353 121.323 7.7532 121.113 7.39318C120.903 7.03316 120.619 6.72154 120.28 6.47866C119.584 5.96666 118.631 5.71066 117.42 5.71066C116.689 5.69538 115.962 5.81843 115.277 6.07333C114.72 6.27864 114.232 6.63563 113.867 7.104C113.526 7.56332 113.349 8.12322 113.364 8.69466C113.353 9.01976 113.407 9.34378 113.525 9.64717C113.642 9.95057 113.82 10.2271 114.047 10.46C114.503 10.9213 115.198 11.2458 116.133 11.4333L117.793 11.764C118.124 11.8125 118.44 11.9351 118.717 12.1227C118.811 12.1912 118.888 12.2809 118.941 12.3844C118.994 12.4879 119.022 12.6024 119.023 12.7187C119.018 12.8634 118.976 13.0044 118.9 13.1275C118.824 13.2507 118.717 13.3516 118.589 13.42C118.234 13.6038 117.839 13.6972 117.439 13.6918C117.039 13.6865 116.646 13.5826 116.296 13.3893C116.145 13.2888 116.017 13.1587 115.918 13.007C115.82 12.8552 115.753 12.685 115.723 12.5067L113.108 12.64C113.161 13.0745 113.306 13.4926 113.534 13.8664C113.762 14.2403 114.066 14.5613 114.428 14.808C115.178 15.3413 116.187 15.608 117.456 15.608C118.21 15.621 118.96 15.4851 119.661 15.208C120.253 14.9783 120.774 14.5966 121.172 14.1013C121.539 13.6293 121.734 13.0459 121.724 12.448C121.736 12.1364 121.681 11.8257 121.563 11.5372C121.444 11.2487 121.265 10.9891 121.037 10.776C120.579 10.3538 119.883 10.0467 118.951 9.85466Z" fill="#050728"/>
<path d="M132.164 11.308V10.5787C132.178 9.85276 132.062 9.13017 131.821 8.44532C131.616 7.87546 131.29 7.35717 130.864 6.92666C130.456 6.52504 129.967 6.21543 129.429 6.01866C128.862 5.81374 128.263 5.71125 127.66 5.71599C126.799 5.69299 125.947 5.90748 125.2 6.33599C124.507 6.75046 123.947 7.35472 123.587 8.07733C123.19 8.88197 122.993 9.76998 123.012 10.6667C123.012 11.6773 123.203 12.552 123.587 13.2907C123.951 14.0099 124.521 14.6047 125.224 15C125.935 15.4009 126.783 15.6013 127.767 15.6013C128.481 15.6149 129.191 15.4913 129.859 15.2373C130.428 15.0186 130.937 14.6676 131.344 14.2133C131.729 13.7745 131.993 13.242 132.108 12.6693L129.651 12.508C129.565 12.7389 129.428 12.9476 129.251 13.1187C129.071 13.2881 128.856 13.416 128.621 13.4933C128.359 13.5786 128.085 13.6204 127.809 13.6173C127.407 13.6278 127.009 13.5311 126.656 13.3373C126.332 13.15 126.071 12.8719 125.904 12.5373C125.718 12.1548 125.627 11.7332 125.637 11.308H132.164ZM126.633 7.97466C126.957 7.78602 127.326 7.68964 127.7 7.69599C128.056 7.68883 128.408 7.77624 128.72 7.94932C129.009 8.11358 129.248 8.35439 129.409 8.64532C129.58 8.95636 129.666 9.30668 129.659 9.66132H125.645C125.659 9.32965 125.75 9.00581 125.912 8.71599C126.083 8.40956 126.332 8.15379 126.633 7.97466Z" fill="#050728"/>
<path d="M47.12 21.5787H44.4187V34.356H47.12V21.5787Z" fill="#050728"/>
<path d="M56.5654 25.0853C56.0354 24.7856 55.4341 24.6349 54.8254 24.6493C54.185 24.6294 53.553 24.7996 53.0094 25.1387C52.5198 25.4534 52.1456 25.9185 51.9427 26.464H51.8307V24.7733H49.2974V34.356H51.9547V28.816C51.9485 28.45 52.0289 28.0877 52.1894 27.7587C52.3308 27.4784 52.5521 27.2464 52.8254 27.092C53.115 26.9341 53.4409 26.8546 53.7707 26.8613C54.304 26.8613 54.7218 27.0267 55.024 27.3573C55.3262 27.688 55.476 28.1467 55.4734 28.7333V34.36H58.1334V28.2547C58.1507 27.5893 58.0095 26.9293 57.7214 26.3293C57.4648 25.8113 57.0632 25.3791 56.5654 25.0853Z" fill="#050728"/>
<path d="M65.6426 28.7907L63.9093 28.4413C63.4648 28.3471 63.151 28.2204 62.9679 28.0613C62.8814 27.9916 62.8117 27.9032 62.7642 27.8028C62.7166 27.7023 62.6924 27.5925 62.6933 27.4813C62.6943 27.3387 62.7343 27.199 62.8091 27.0775C62.8838 26.956 62.9904 26.8572 63.1173 26.792C63.4335 26.6105 63.7942 26.5209 64.1586 26.5333C64.4331 26.5259 64.706 26.5777 64.9586 26.6853C65.1668 26.7757 65.3515 26.9125 65.4986 27.0853C65.6327 27.2489 65.7243 27.4431 65.7653 27.6507L68.1986 27.5C68.153 27.0857 68.0209 26.6856 67.8107 26.3256C67.6005 25.9657 67.317 25.654 66.9786 25.4107C66.2808 24.8987 65.3275 24.6431 64.1186 24.644C63.3875 24.6283 62.6601 24.7509 61.9746 25.0053C61.4157 25.2094 60.9252 25.566 60.5586 26.0347C60.2194 26.4944 60.043 27.0541 60.0573 27.6253C60.0454 27.9505 60.0999 28.2747 60.2172 28.5781C60.3346 28.8816 60.5124 29.1581 60.7399 29.3907C61.195 29.852 61.8906 30.1764 62.8266 30.364L64.4866 30.6947C64.8171 30.7438 65.1324 30.8663 65.4093 31.0533C65.5034 31.1217 65.5801 31.2113 65.6332 31.3148C65.6862 31.4184 65.7141 31.533 65.7146 31.6493C65.7107 31.7941 65.6686 31.9352 65.5925 32.0584C65.5164 32.1816 65.409 32.2824 65.2813 32.3507C64.9262 32.5345 64.5312 32.6278 64.1314 32.6225C63.7316 32.6171 63.3393 32.5132 62.9893 32.32C62.8386 32.2196 62.7099 32.0896 62.6111 31.9378C62.5123 31.7861 62.4454 31.6158 62.4146 31.4373L59.8013 31.5707C59.8536 32.0052 59.9984 32.4235 60.2258 32.7974C60.4533 33.1714 60.7581 33.4923 61.1199 33.7387C61.8702 34.272 62.8799 34.5387 64.1493 34.5387C64.9035 34.5517 65.653 34.4158 66.3546 34.1387C66.9464 33.9117 67.4679 33.5327 67.8666 33.04C68.2338 32.568 68.4286 31.9846 68.4186 31.3867C68.4311 31.0751 68.3763 30.7645 68.258 30.476C68.1398 30.1875 67.9608 29.9278 67.7333 29.7147C67.271 29.2907 66.5741 28.9827 65.6426 28.7907Z" fill="#050728"/>
<path d="M72.7479 24.7733H70.0906V34.356H72.7479V24.7733Z" fill="#050728"/>
<path d="M71.4254 20.8493C71.049 20.8445 70.6858 20.9882 70.4147 21.2493C70.2813 21.3687 70.1746 21.515 70.1015 21.6784C70.0285 21.8419 69.9907 22.0189 69.9907 22.198C69.9907 22.377 70.0285 22.5541 70.1015 22.7175C70.1746 22.881 70.2813 23.0272 70.4147 23.1467C70.6915 23.4012 71.0539 23.5425 71.43 23.5425C71.8061 23.5425 72.1685 23.4012 72.4454 23.1467C72.578 23.0268 72.6841 22.8804 72.7566 22.717C72.8292 22.5536 72.8667 22.3768 72.8667 22.198C72.8667 22.0192 72.8292 21.8424 72.7566 21.679C72.6841 21.5156 72.578 21.3692 72.4454 21.2493C72.1718 20.986 71.805 20.8422 71.4254 20.8493Z" fill="#050728"/>
<path d="M81.2321 26.3827H81.1334C80.9949 26.0994 80.8221 25.8343 80.6187 25.5933C80.3759 25.3124 80.0771 25.0854 79.7414 24.9267C79.3193 24.7345 78.8582 24.6432 78.3947 24.66C77.7106 24.654 77.0389 24.8422 76.4574 25.2027C75.8381 25.5988 75.3471 26.1662 75.0441 26.836C74.6885 27.564 74.5107 28.4711 74.5107 29.5573C74.5107 30.6178 74.6845 31.4942 75.0321 32.1867C75.3339 32.8299 75.8234 33.3668 76.4361 33.7267C77.0357 34.0614 77.7134 34.2312 78.4001 34.2187C78.8473 34.2293 79.2924 34.1532 79.7107 33.9947C80.0465 33.8636 80.3522 33.6659 80.6094 33.4133C80.8286 33.1958 81.0062 32.9401 81.1334 32.6587H81.2454V34.412C81.2454 35.0404 81.057 35.492 80.6801 35.7667C80.2596 36.0535 79.758 36.1975 79.2494 36.1773C78.9156 36.1861 78.5829 36.1355 78.2667 36.028C78.0272 35.9456 77.8071 35.8149 77.6201 35.644C77.4699 35.504 77.3493 35.3354 77.2654 35.148L74.8067 35.4787C74.9206 35.9727 75.1641 36.4274 75.5121 36.796C75.9202 37.2207 76.4227 37.5432 76.9787 37.7373C77.6889 37.9864 78.4384 38.1048 79.1907 38.0867C80.0191 38.1018 80.843 37.962 81.6201 37.6747C82.2779 37.435 82.8531 37.0116 83.2774 36.4547C83.6765 35.916 83.8761 35.2493 83.8761 34.4547V24.7733H81.2361L81.2321 26.3827ZM81.0174 30.9773C80.8824 31.3451 80.6439 31.666 80.3307 31.9013C80.0049 32.1132 79.6247 32.226 79.2361 32.226C78.8475 32.226 78.4672 32.1132 78.1414 31.9013C77.8292 31.6626 77.593 31.3384 77.4614 30.968C77.2959 30.5092 77.2168 30.0236 77.2281 29.536C77.2188 29.0457 77.297 28.5576 77.4587 28.0947C77.5888 27.7117 77.8245 27.3733 78.1387 27.1187C78.4593 26.8913 78.8422 26.7684 79.2353 26.7667C79.6283 26.765 80.0122 26.8847 80.3347 27.1093C80.6492 27.3599 80.8867 27.694 81.0201 28.0733C81.1883 28.5436 81.2688 29.0407 81.2574 29.54C81.2685 30.0299 81.1871 30.5176 81.0174 30.9773Z" fill="#050728"/>
<path d="M93.2947 25.0827C92.7632 24.7845 92.1613 24.6349 91.552 24.6493C90.824 24.6493 90.2187 24.8102 89.736 25.132C89.254 25.4539 88.8869 25.9209 88.688 26.4653H88.576V21.5787H86V34.356H88.6573V28.816C88.6506 28.4493 88.733 28.0865 88.8973 27.7587C89.0433 27.4773 89.2693 27.2454 89.5467 27.092C89.8406 26.9339 90.1704 26.8545 90.504 26.8613C91.0436 26.8613 91.4645 27.0253 91.7667 27.3533C92.0689 27.6813 92.2178 28.1413 92.2134 28.7333V34.36H94.8707V28.2547C94.8926 27.5876 94.7526 26.9252 94.4627 26.324C94.2029 25.8051 93.7969 25.3735 93.2947 25.0827Z" fill="#050728"/>
<path d="M101.527 32.3133C101.403 32.3357 101.278 32.3469 101.152 32.3467C100.992 32.3499 100.832 32.3227 100.681 32.2667C100.546 32.2119 100.435 32.1114 100.367 31.9827C100.283 31.8045 100.245 31.6085 100.255 31.412V26.7693H102.057V24.7693H100.255V22.4773H97.6001V24.7733H96.2908V26.7733H97.6001V31.7653C97.6001 32.3929 97.7312 32.9124 97.9934 33.324C98.2618 33.7377 98.6537 34.0563 99.1134 34.2347C99.649 34.4395 100.222 34.5268 100.795 34.4907C101.091 34.4844 101.385 34.4501 101.675 34.388C101.916 34.332 102.103 34.2827 102.236 34.2413L101.813 32.2667L101.527 32.3133Z" fill="#050728"/>
</svg>
