<svg width="17" height="17" viewBox="0 0 17 17" fill="none" xmlns="http://www.w3.org/2000/svg">
<path d="M5.97144 2.19385H3.98819C3.63752 2.19385 3.30123 2.33315 3.05327 2.5811C2.80532 2.82906 2.66602 3.16536 2.66602 3.51602V5.49927M14.5656 5.49927V3.51602C14.5656 3.16536 14.4263 2.82906 14.1783 2.5811C13.9303 2.33315 13.594 2.19385 13.2434 2.19385H11.2601M11.2601 14.0934H13.2434C13.594 14.0934 13.9303 13.9541 14.1783 13.7061C14.4263 13.4582 14.5656 13.1219 14.5656 12.7712V10.788M2.66602 10.788V12.7712C2.66602 13.1219 2.80532 13.4582 3.05327 13.7061C3.30123 13.9541 3.63752 14.0934 3.98819 14.0934H5.97144" stroke="#4A4D61" stroke-width="1.5866" stroke-linecap="round" stroke-linejoin="round"/>
</svg>
