<svg width="39" height="39" viewBox="0 0 39 39" fill="none" xmlns="http://www.w3.org/2000/svg">
<path fill-rule="evenodd" clip-rule="evenodd" d="M6.60742 10.4614C6.60742 8.84103 7.96149 7.46143 9.71416 7.46143C11.4668 7.46143 12.8209 8.84103 12.8209 10.4614C12.8209 12.0818 11.4668 13.4614 9.71416 13.4614C7.96149 13.4614 6.60742 12.0818 6.60742 10.4614ZM9.71416 3.96143C6.10223 3.96143 3.10742 6.83512 3.10742 10.4614C3.10742 13.4811 5.18402 15.9789 7.96436 16.7301V34.2117C7.96436 35.1782 8.74786 35.9617 9.71436 35.9617C10.6809 35.9617 11.4644 35.1782 11.4644 34.2117V16.73C14.2445 15.9786 16.3209 13.4809 16.3209 10.4614C16.3209 6.83512 13.3261 3.96143 9.71416 3.96143ZM26.0334 29.4611C26.0334 27.8509 27.3705 26.4784 29.1071 26.4612C29.1185 26.4614 29.1298 26.4615 29.1412 26.4615C29.1471 26.4615 29.153 26.4615 29.1589 26.4615C29.1641 26.4614 29.1693 26.4613 29.1745 26.4612C30.9105 26.4791 32.2469 27.8513 32.2469 29.4611C32.2469 31.0815 30.8929 32.4611 29.1402 32.4611C27.3875 32.4611 26.0334 31.0815 26.0334 29.4611ZM22.5334 29.4611C22.5334 26.4411 24.6105 23.9431 27.3912 23.1922V13.6282C27.3912 13.2652 27.2441 12.909 26.9692 12.6402C26.6931 12.37 26.3104 12.2115 25.9034 12.2115H21.0466C20.0801 12.2115 19.2966 11.428 19.2966 10.4615C19.2966 9.49505 20.0801 8.71155 21.0466 8.71155H25.9034C27.2138 8.71155 28.4782 9.22032 29.4165 10.1379C30.356 11.0568 30.8912 12.3115 30.8912 13.6282V23.1927C33.6709 23.9443 35.7469 26.4418 35.7469 29.4611C35.7469 33.0874 32.7521 35.9611 29.1402 35.9611C25.5283 35.9611 22.5334 33.0874 22.5334 29.4611Z" fill="#E82A45"/>
</svg>
