<svg width="24" height="24" viewBox="0 0 24 24" fill="none" xmlns="http://www.w3.org/2000/svg">
<path fill-rule="evenodd" clip-rule="evenodd" d="M7.25029 3.00024H7.25082H16.7639H16.7644C17.3224 3.00054 17.8692 3.15661 18.3433 3.45083C18.817 3.74476 19.1993 4.1649 19.4475 4.66401L19.4482 4.6655L22.8854 11.5349C22.9528 11.6629 22.9932 11.8072 22.9992 11.9604C22.9998 11.9736 23 11.9869 23 12.0002V18.0002C23 18.7957 22.6843 19.5586 22.122 20.1213C21.5598 20.684 20.797 21.0002 20.0015 21.0002H4.01319C3.21769 21.0002 2.45492 20.684 1.89264 20.1213C1.33039 19.5586 1.01465 18.7957 1.01465 18.0002V12.0002C1.01465 11.8322 1.05608 11.6739 1.12929 11.5349L4.56647 4.6655L4.56724 4.66395C4.81542 4.16486 5.19772 3.74475 5.67135 3.45083C6.14547 3.15661 6.69228 3.00054 7.25029 3.00024ZM17.6583 5.55771L20.3815 11.0002H16.0044C15.67 11.0002 15.3576 11.1675 15.1722 11.4458L13.4705 14.0002H10.5442L8.8425 11.4458C8.65707 11.1675 8.34474 11.0002 8.01027 11.0002H3.6332L6.35643 5.55771L5.46214 5.11024L6.35779 5.55498C6.44054 5.38832 6.56806 5.24817 6.72592 5.15021C6.88372 5.05228 7.06561 5.00037 7.25116 5.00024H16.7635C16.9491 5.00037 17.131 5.05228 17.2888 5.15021C17.4466 5.24817 17.5741 5.38832 17.6569 5.55498L17.6583 5.55771ZM3.01465 18.0002V13.0002H7.47487L9.17657 15.5547C9.36201 15.833 9.67433 16.0002 10.0088 16.0002H14.0059C14.3404 16.0002 14.6527 15.833 14.8381 15.5547L16.5398 13.0002H21V18.0002C21 18.2657 20.8947 18.5201 20.7073 18.7076C20.52 18.8951 20.2661 19.0002 20.0015 19.0002H4.01319C3.74859 19.0002 3.49469 18.8951 3.30737 18.7076C3.12003 18.5201 3.01465 18.2657 3.01465 18.0002ZM8.99952 7.00025C8.44723 7.00025 7.99952 7.44796 7.99952 8.00025C7.99952 8.55253 8.44723 9.00025 8.99952 9.00025H14.9995C15.5518 9.00025 15.9995 8.55253 15.9995 8.00025C15.9995 7.44796 15.5518 7.00025 14.9995 7.00025H8.99952Z" fill="#4A4D61"/>
</svg>
