<svg width="18" height="18" viewBox="0 0 18 18" fill="none" xmlns="http://www.w3.org/2000/svg">
<path fill-rule="evenodd" clip-rule="evenodd" d="M5.43734 1.99999H5.43787H12.5727H12.5732C13.0382 2.00024 13.494 2.13031 13.8891 2.37551C14.2837 2.62042 14.6023 2.97044 14.8091 3.38623L14.8098 3.38775L17.3851 8.53466C17.4526 8.66268 17.493 8.80712 17.499 8.96041C17.4995 8.97358 17.4998 8.98678 17.4998 8.99999V13.5C17.4998 14.1628 17.2367 14.7986 16.7681 15.2675C16.2996 15.7364 15.6639 16 15.0009 16H3.00965C2.34666 16 1.71097 15.7364 1.2424 15.2675C0.773842 14.7986 0.510742 14.1628 0.510742 13.5V9V8.99999C0.510742 8.83198 0.552179 8.67364 0.625388 8.53465L3.20069 3.38775L3.20146 3.38621C3.40828 2.97042 3.72681 2.62041 4.12145 2.37551C4.51657 2.13031 4.97229 2.00024 5.43734 1.99999ZM13.0199 4.27996L14.8812 8H12.0031C11.6686 8 11.3563 8.16722 11.1708 8.44558L9.96877 10.25H8.04176L6.83969 8.44558C6.65425 8.16722 6.34193 8 6.00746 8H3.12929L4.99065 4.27996L4.09636 3.8325L4.99201 4.27723C5.0334 4.19387 5.09716 4.12383 5.17602 4.07489C5.25482 4.02599 5.34563 4.00007 5.43823 3.99999H12.5723C12.6649 4.00007 12.7557 4.02599 12.8345 4.07489C12.9134 4.12383 12.9771 4.19387 13.0185 4.27723L13.0199 4.27996ZM2.51074 13.5V10H5.47206L6.67412 11.8044C6.85956 12.0828 7.17189 12.25 7.50636 12.25H10.5042C10.8386 12.25 11.151 12.0828 11.3364 11.8044L12.5385 10H15.4998V13.5C15.4998 13.6328 15.447 13.7601 15.3534 13.8538C15.2598 13.9475 15.133 14 15.0009 14H3.00965C2.87757 14 2.75075 13.9475 2.65713 13.8538C2.56348 13.7601 2.51074 13.6328 2.51074 13.5ZM6.74927 5.25C6.33506 5.25 5.99927 5.58578 5.99927 6C5.99927 6.41421 6.33506 6.75 6.74927 6.75H11.2493C11.6635 6.75 11.9993 6.41421 11.9993 6C11.9993 5.58578 11.6635 5.25 11.2493 5.25H6.74927Z" fill="#fff"/>
</svg>
