<svg width="16" height="16" viewBox="0 0 16 16" fill="none" xmlns="http://www.w3.org/2000/svg">
<path fill-rule="evenodd" clip-rule="evenodd" d="M7.99967 3.66669C8.18377 3.66669 8.33301 3.51745 8.33301 3.33335C8.33301 3.14926 8.18377 3.00002 7.99967 3.00002C7.81558 3.00002 7.66634 3.14926 7.66634 3.33335C7.66634 3.51745 7.81558 3.66669 7.99967 3.66669ZM6.33301 3.33335C6.33301 2.41288 7.0792 1.66669 7.99967 1.66669C8.92015 1.66669 9.66634 2.41288 9.66634 3.33335C9.66634 4.25383 8.92015 5.00002 7.99967 5.00002C7.0792 5.00002 6.33301 4.25383 6.33301 3.33335ZM7.99967 8.33336C8.18377 8.33336 8.33301 8.18413 8.33301 8.00003C8.33301 7.81594 8.18377 7.6667 7.99967 7.6667C7.81558 7.6667 7.66634 7.81594 7.66634 8.00003C7.66634 8.18413 7.81558 8.33336 7.99967 8.33336ZM6.33301 8.00003C6.33301 7.07956 7.0792 6.33336 7.99967 6.33336C8.92015 6.33336 9.66634 7.07956 9.66634 8.00003C9.66634 8.92051 8.92015 9.6667 7.99967 9.6667C7.0792 9.6667 6.33301 8.92051 6.33301 8.00003ZM8.33301 12.6667C8.33301 12.8508 8.18377 13 7.99967 13C7.81558 13 7.66634 12.8508 7.66634 12.6667C7.66634 12.4826 7.81558 12.3334 7.99967 12.3334C8.18377 12.3334 8.33301 12.4826 8.33301 12.6667ZM7.99967 11C7.0792 11 6.33301 11.7462 6.33301 12.6667C6.33301 13.5872 7.0792 14.3334 7.99967 14.3334C8.92015 14.3334 9.66634 13.5872 9.66634 12.6667C9.66634 11.7462 8.92015 11 7.99967 11Z" fill="#E82A45"/>
</svg>
