<svg width="20" height="20" viewBox="0 0 20 20" fill="none" xmlns="http://www.w3.org/2000/svg">
<path fill-rule="evenodd" clip-rule="evenodd" d="M9.99984 4.33333C10.0919 4.33333 10.1665 4.25871 10.1665 4.16666C10.1665 4.07461 10.0919 3.99999 9.99984 3.99999C9.90779 3.99999 9.83317 4.07461 9.83317 4.16666C9.83317 4.25871 9.90779 4.33333 9.99984 4.33333ZM8.1665 4.16666C8.1665 3.15414 8.98732 2.33333 9.99984 2.33333C11.0124 2.33333 11.8332 3.15414 11.8332 4.16666C11.8332 5.17918 11.0124 5.99999 9.99984 5.99999C8.98732 5.99999 8.1665 5.17918 8.1665 4.16666ZM9.99984 10.1667C10.0919 10.1667 10.1665 10.0921 10.1665 10C10.1665 9.90796 10.0919 9.83334 9.99984 9.83334C9.90779 9.83334 9.83317 9.90796 9.83317 10C9.83317 10.0921 9.90779 10.1667 9.99984 10.1667ZM8.1665 10C8.1665 8.98748 8.98732 8.16667 9.99984 8.16667C11.0124 8.16667 11.8332 8.98748 11.8332 10C11.8332 11.0125 11.0124 11.8333 9.99984 11.8333C8.98732 11.8333 8.1665 11.0125 8.1665 10ZM10.1665 15.8333C10.1665 15.9254 10.0919 16 9.99984 16C9.90779 16 9.83317 15.9254 9.83317 15.8333C9.83317 15.7413 9.90779 15.6667 9.99984 15.6667C10.0919 15.6667 10.1665 15.7413 10.1665 15.8333ZM9.99984 14C8.98732 14 8.1665 14.8208 8.1665 15.8333C8.1665 16.8459 8.98732 17.6667 9.99984 17.6667C11.0124 17.6667 11.8332 16.8459 11.8332 15.8333C11.8332 14.8208 11.0124 14 9.99984 14Z" fill="#82839C"/>
</svg>
