<svg width="10" height="10" viewBox="0 0 10 10" fill="none" xmlns="http://www.w3.org/2000/svg">
<path fill-rule="evenodd" clip-rule="evenodd" d="M3.20711 1.79289C2.81658 1.40237 2.18342 1.40237 1.79289 1.79289C1.40237 2.18342 1.40237 2.81658 1.79289 3.20711L3.58579 5L1.79289 6.79289C1.40237 7.18342 1.40237 7.81658 1.79289 8.20711C2.18342 8.59763 2.81658 8.59763 3.20711 8.20711L5 6.41421L6.79289 8.20711C7.18342 8.59763 7.81658 8.59763 8.20711 8.20711C8.59763 7.81658 8.59763 7.18342 8.20711 6.79289L6.41421 5L8.20711 3.20711C8.59763 2.81658 8.59763 2.18342 8.20711 1.79289C7.81658 1.40237 7.18342 1.40237 6.79289 1.79289L5 3.58579L3.20711 1.79289Z" fill="#9D9EB8"/>
</svg>
