<svg width="18" height="18" viewBox="0 0 18 18" fill="none" xmlns="http://www.w3.org/2000/svg">
<path fill-rule="evenodd" clip-rule="evenodd" d="M8.55281 0.605573C8.83433 0.464809 9.16571 0.464809 9.44723 0.605573L16.9472 4.35557C17.286 4.52496 17.5 4.87123 17.5 5.25C17.5 5.62877 17.286 5.97503 16.9472 6.14443L9.44723 9.89443C9.16571 10.0352 8.83433 10.0352 8.55281 9.89443L1.05281 6.14443C0.714023 5.97503 0.500021 5.62877 0.500021 5.25C0.500021 4.87123 0.714023 4.52496 1.05281 4.35557L8.55281 0.605573ZM3.73609 5.25L9.00002 7.88197L14.264 5.25L9.00002 2.61803L3.73609 5.25ZM0.605594 12.3028C0.852583 11.8088 1.45326 11.6086 1.94723 11.8556L9.00002 15.382L16.0528 11.8556C16.5468 11.6086 17.1475 11.8088 17.3944 12.3028C17.6414 12.7968 17.4412 13.3974 16.9472 13.6444L9.44723 17.3944C9.16571 17.5352 8.83433 17.5352 8.55281 17.3944L1.05281 13.6444C0.558829 13.3974 0.358604 12.7968 0.605594 12.3028ZM1.94723 8.10557C1.45326 7.85858 0.852583 8.0588 0.605594 8.55278C0.358604 9.04676 0.558829 9.64743 1.05281 9.89442L8.55281 13.6444C8.83433 13.7852 9.16571 13.7852 9.44723 13.6444L16.9472 9.89442C17.4412 9.64743 17.6414 9.04676 17.3944 8.55278C17.1475 8.0588 16.5468 7.85858 16.0528 8.10557L9.00002 11.632L1.94723 8.10557Z" fill="#4A4D61"/>
</svg>
