<svg width="24" height="24" viewBox="0 0 24 24" fill="none" xmlns="http://www.w3.org/2000/svg">
<path fill-rule="evenodd" clip-rule="evenodd" d="M11.5528 1.10569C11.8343 0.964931 12.1657 0.964931 12.4472 1.10569L22.4472 6.10569C22.786 6.27509 23 6.62135 23 7.00012C23 7.37889 22.786 7.72516 22.4472 7.89455L12.4472 12.8945C12.1657 13.0353 11.8343 13.0353 11.5528 12.8945L1.55281 7.89455C1.21402 7.72516 1.00002 7.37889 1.00002 7.00012C1.00002 6.62135 1.21402 6.27509 1.55281 6.10569L11.5528 1.10569ZM4.23609 7.00012L12 10.8821L19.764 7.00012L12 3.11816L4.23609 7.00012ZM1.10559 16.5529C1.35258 16.0589 1.95326 15.8587 2.44723 16.1057L12 20.8821L21.5528 16.1057C22.0468 15.8587 22.6475 16.0589 22.8944 16.5529C23.1414 17.0469 22.9412 17.6476 22.4472 17.8945L12.4472 22.8945C12.1657 23.0353 11.8343 23.0353 11.5528 22.8945L1.55281 17.8945C1.05883 17.6476 0.858604 17.0469 1.10559 16.5529ZM2.44723 11.1057C1.95326 10.8587 1.35258 11.0589 1.10559 11.5529C0.858604 12.0469 1.05883 12.6476 1.55281 12.8945L11.5528 17.8945C11.8343 18.0353 12.1657 18.0353 12.4472 17.8945L22.4472 12.8945C22.9412 12.6476 23.1414 12.0469 22.8944 11.5529C22.6475 11.0589 22.0468 10.8587 21.5528 11.1057L12 15.8821L2.44723 11.1057Z" fill="#E82A45"/>
</svg>
