<svg width="24" height="24" viewBox="0 0 24 24" fill="none" xmlns="http://www.w3.org/2000/svg">
<path fill-rule="evenodd" clip-rule="evenodd" d="M10.5021 1.40072C10.9577 1.13822 11.4742 1.00003 12 1.00003C12.5258 1.00003 13.0424 1.13823 13.4979 1.40075L13.5 1.40195L20.4961 5.39974L20.5 5.40195C20.87 5.61556 21.1891 5.90514 21.4369 6.25035C21.4973 6.31072 21.5508 6.37986 21.5956 6.45726C21.6342 6.52392 21.6642 6.59318 21.686 6.66377C21.8917 7.07724 21.9995 7.53345 22 7.99695V7.99798V15.998V15.999C21.9995 16.5251 21.8606 17.0418 21.5973 17.4973C21.334 17.9527 20.9556 18.331 20.5 18.594L20.4961 18.5962L13.5 22.594L13.4978 22.5953C13.1807 22.778 12.834 22.9005 12.4752 22.9581C12.3339 23.0345 12.172 23.078 12 23.078C11.828 23.078 11.6661 23.0345 11.5248 22.9581C11.166 22.9005 10.8193 22.778 10.5022 22.5953L10.5 22.594L3.50386 18.5962L3.5 18.594C3.04439 18.331 2.66597 17.9527 2.40269 17.4973C2.13941 17.0418 2.00054 16.5251 2 15.999V15.998V7.99798V7.99695C2.00048 7.53347 2.10832 7.07728 2.31401 6.66382C2.33581 6.59321 2.36582 6.52393 2.40439 6.45726C2.44917 6.37985 2.50273 6.31069 2.56309 6.25032C2.81095 5.90512 3.13002 5.61556 3.5 5.40195L3.50386 5.39973L3.50386 5.39974L10.5021 1.40072ZM13 20.5762L19.5 16.862L19.5016 16.861C19.6527 16.7734 19.7783 16.6477 19.8658 16.4964C19.9535 16.3446 19.9998 16.1723 20 15.997V8.53551L13 12.5848V20.5762ZM11 12.5848V20.5762L4.5 16.862L4.49842 16.861C4.34726 16.7734 4.22169 16.6477 4.13423 16.4964C4.04654 16.3447 4.00026 16.1726 4 15.9974V8.53552L11 12.5848ZM12.5039 3.13622L18.961 6.82602L12 10.8527L5.03898 6.82602L11.4961 3.13622L11.4961 3.13623L11.5 3.13401C11.652 3.04624 11.8245 3.00003 12 3.00003C12.1755 3.00003 12.348 3.04624 12.5 3.13401L12.5 3.13401L12.5039 3.13622Z" fill="white"/>
</svg>
