<svg width="18" height="18" viewBox="0 0 18 18" fill="none" xmlns="http://www.w3.org/2000/svg">
<path fill-rule="evenodd" clip-rule="evenodd" d="M7.75218 0.83374C8.1317 0.615135 8.562 0.500061 9 0.500061C9.438 0.500061 9.8683 0.615135 10.2478 0.83374L10.25 0.834997L15.4961 3.83278L15.5 3.83499L15.5 3.835C15.8024 4.00957 16.064 4.24504 16.2688 4.52541C16.3233 4.58227 16.372 4.64654 16.4132 4.7178C16.4483 4.77836 16.4762 4.84107 16.4974 4.90497C16.6629 5.24463 16.7496 5.61813 16.75 5.9975L16.75 5.99852L16.75 11.9985L16.75 11.9995C16.7495 12.438 16.6338 12.8685 16.4144 13.2481C16.195 13.6277 15.8797 13.9428 15.5 14.162L15.4961 14.1643L15.4961 14.1643L10.25 17.162L10.2477 17.1634C9.99541 17.3087 9.72069 17.4082 9.43618 17.4586C9.30436 17.5226 9.15637 17.5585 9 17.5585C8.84363 17.5585 8.69564 17.5226 8.56382 17.4586C8.27931 17.4082 8.00458 17.3087 7.7523 17.1634L7.75 17.162L2.50386 14.1643L2.5 14.162C2.12033 13.9428 1.80498 13.6277 1.58558 13.2481C1.36618 12.8685 1.25045 12.438 1.25 11.9995V11.9985V5.99852V5.9975C1.25039 5.61759 1.33735 5.24356 1.50331 4.90352C1.52442 4.84012 1.55224 4.7779 1.58701 4.7178C1.62799 4.64695 1.67633 4.58302 1.73051 4.5264C1.93542 4.24559 2.19727 4.00978 2.5 3.835L2.50386 3.83277L2.50386 3.83278L7.75218 0.83374ZM10 15.0014L14.5 12.43L14.5014 12.4292C14.5767 12.3854 14.6393 12.3227 14.6829 12.2472C14.7267 12.1715 14.7498 12.0856 14.75 11.9981L14.75 11.9975V6.83517L10 9.58288V15.0014ZM8 9.58275V15.0014L3.5 12.43L3.49861 12.4292C3.42329 12.3854 3.36073 12.3227 3.31711 12.2472C3.2733 12.1714 3.25016 12.0854 3.25 11.9979V6.83504L8 9.58275ZM9.25386 2.56927L13.7193 5.12091L9.00011 7.85077L4.28087 5.12085L8.74614 2.56927L8.74614 2.56927L8.75 2.56705C8.82601 2.52316 8.91223 2.50006 9 2.50006C9.08777 2.50006 9.17399 2.52316 9.25 2.56705L9.25 2.56706L9.25386 2.56927Z" fill="#E82A45"/>
</svg>
