<svg width="18" height="18" viewBox="0 0 18 18" fill="none" xmlns="http://www.w3.org/2000/svg">
<path fill-rule="evenodd" clip-rule="evenodd" d="M8.29288 4.45711C7.90235 4.06658 7.90235 3.43342 8.29288 3.04289C8.6834 2.65237 9.31657 2.65237 9.70709 3.04289L14.956 8.29185C14.9593 8.29508 14.9625 8.29834 14.9657 8.30161C15.1416 8.48185 15.25 8.72826 15.25 9C15.25 9.13559 15.223 9.26488 15.1741 9.38278C15.1253 9.50073 15.053 9.61123 14.9571 9.70711L9.70709 14.9571C9.31657 15.3476 8.6834 15.3476 8.29288 14.9571C7.90235 14.5666 7.90235 13.9334 8.29288 13.5429L11.8358 10H3.74998C3.1977 10 2.74998 9.55228 2.74998 9C2.74998 8.44771 3.1977 8 3.74998 8H11.8358L8.29288 4.45711Z" fill="#050728"/>
</svg>
