<svg width="18" height="18" viewBox="0 0 18 18" fill="none" xmlns="http://www.w3.org/2000/svg">
<path fill-rule="evenodd" clip-rule="evenodd" d="M9.70713 4.45711C10.0977 4.06658 10.0977 3.43342 9.70713 3.04289C9.3166 2.65237 8.68344 2.65237 8.29291 3.04289L3.04396 8.29185C3.04072 8.29508 3.0375 8.29834 3.0343 8.30161C2.8584 8.48185 2.75002 8.72826 2.75002 9C2.75002 9.13559 2.777 9.26488 2.8259 9.38278C2.8747 9.50073 2.94704 9.61123 3.04291 9.70711L8.29291 14.9571C8.68344 15.3476 9.3166 15.3476 9.70713 14.9571C10.0977 14.5666 10.0977 13.9334 9.70713 13.5429L6.16423 10H14.25C14.8023 10 15.25 9.55228 15.25 9C15.25 8.44771 14.8023 8 14.25 8H6.16423L9.70713 4.45711Z" fill="#050728"/>
</svg>
