<svg width="24" height="24" viewBox="0 0 24 24" fill="none" xmlns="http://www.w3.org/2000/svg">
<path fill-rule="evenodd" clip-rule="evenodd" d="M12 1C11.7348 1 11.4804 1.10536 11.2929 1.29289C11.1054 1.48043 11 1.73478 11 2V12C11 12.5523 11.4477 13 12 13H22C22.5523 13 23 12.5523 23 12C23 10.5555 22.7155 9.12506 22.1627 7.79048C21.6099 6.4559 20.7996 5.24327 19.7782 4.22183C18.7567 3.20038 17.5441 2.39013 16.2095 1.83733C14.8749 1.28452 13.4445 1 12 1ZM13 11V3.05573C13.8386 3.14949 14.6615 3.3609 15.4442 3.68508C16.5361 4.13738 17.5282 4.80031 18.364 5.63604C19.1997 6.47177 19.8626 7.46392 20.3149 8.55585C20.6391 9.33849 20.8505 10.1614 20.9443 11H13ZM8.39994 3.74654C8.90612 3.52565 9.1374 2.93623 8.91651 2.43005C8.69562 1.92386 8.1062 1.69258 7.60002 1.91347C5.95319 2.63212 4.50747 3.74325 3.38927 5.14971C2.27106 6.55616 1.51441 8.21513 1.18547 9.98157C0.856534 11.748 0.965318 13.5681 1.50231 15.2828C2.03931 16.9975 2.98817 18.5545 4.26594 19.8178C5.5437 21.0811 7.11147 22.0121 8.83218 22.5294C10.5529 23.0468 12.3741 23.1348 14.1367 22.7857C15.8993 22.4366 17.5495 21.6611 18.9431 20.5269C20.3367 19.3927 21.4312 17.9344 22.131 16.2795C22.3461 15.7708 22.1081 15.1841 21.5994 14.969C21.0908 14.7539 20.504 14.9919 20.2889 15.5005C19.7164 16.8546 18.8208 18.0477 17.6806 18.9757C16.5404 19.9037 15.1902 20.5382 13.7481 20.8238C12.306 21.1095 10.8159 21.0375 9.40807 20.6142C8.00022 20.1908 6.7175 19.4291 5.67205 18.3955C4.62661 17.362 3.85027 16.088 3.41091 14.6851C2.97155 13.2822 2.88254 11.793 3.15167 10.3477C3.42081 8.90244 4.03988 7.5451 4.95478 6.39436C5.86967 5.24363 7.05253 4.33452 8.39994 3.74654Z" fill="white"/>
</svg>
