<svg width="25" height="25" viewBox="0 0 25 25" fill="none" xmlns="http://www.w3.org/2000/svg">
<path fill-rule="evenodd" clip-rule="evenodd" d="M14 5.5C14 4.5335 13.2165 3.75 12.25 3.75C11.2835 3.75 10.5 4.5335 10.5 5.5V10.75H5.25C4.2835 10.75 3.5 11.5335 3.5 12.5C3.5 13.4665 4.2835 14.25 5.25 14.25H10.5V19.5C10.5 20.4665 11.2835 21.25 12.25 21.25C13.2165 21.25 14 20.4665 14 19.5V14.25H19.25C20.2165 14.25 21 13.4665 21 12.5C21 11.5335 20.2165 10.75 19.25 10.75H14V5.5Z" fill="#050728"/>
</svg>
