<svg width="20" height="20" viewBox="0 0 20 20" fill="none" xmlns="http://www.w3.org/2000/svg">
<path fill-rule="evenodd" clip-rule="evenodd" d="M10.9998 4.16663C10.9998 3.61434 10.5521 3.16663 9.99985 3.16663C9.44756 3.16663 8.99985 3.61434 8.99985 4.16663V8.99997H4.1665C3.61422 8.99997 3.1665 9.44769 3.1665 9.99997C3.1665 10.5523 3.61422 11 4.1665 11H8.99985V15.8333C8.99985 16.3856 9.44756 16.8333 9.99985 16.8333C10.5521 16.8333 10.9998 16.3856 10.9998 15.8333V11H15.8332C16.3855 11 16.8332 10.5523 16.8332 9.99997C16.8332 9.44769 16.3855 8.99997 15.8332 8.99997H10.9998V4.16663Z" fill="white"/>
</svg>
