<svg width="25" height="25" viewBox="0 0 25 25" fill="none" xmlns="http://www.w3.org/2000/svg">
<path fill-rule="evenodd" clip-rule="evenodd" d="M14.5002 5.50049C14.5002 4.53399 13.7167 3.75049 12.7502 3.75049C11.7837 3.75049 11.0002 4.53399 11.0002 5.50049V10.7505H5.75024C4.78375 10.7505 4.00024 11.534 4.00024 12.5005C4.00024 13.467 4.78375 14.2505 5.75024 14.2505H11.0002V19.5005C11.0002 20.467 11.7837 21.2505 12.7502 21.2505C13.7167 21.2505 14.5002 20.467 14.5002 19.5005V14.2505H19.7502C20.7167 14.2505 21.5002 13.467 21.5002 12.5005C21.5002 11.534 20.7167 10.7505 19.7502 10.7505H14.5002V5.50049Z" fill="#050728"/>
</svg>
