<svg width="20" height="20" viewBox="0 0 20 20" fill="none" xmlns="http://www.w3.org/2000/svg">
<path fill-rule="evenodd" clip-rule="evenodd" d="M11.0001 4.16666C11.0001 3.61437 10.5524 3.16666 10.0001 3.16666C9.44781 3.16666 9.00009 3.61437 9.00009 4.16666V9H4.16675C3.61446 9 3.16675 9.44772 3.16675 10C3.16675 10.5523 3.61446 11 4.16675 11H9.00009V15.8333C9.00009 16.3856 9.44781 16.8333 10.0001 16.8333C10.5524 16.8333 11.0001 16.3856 11.0001 15.8333V11H15.8334C16.3857 11 16.8334 10.5523 16.8334 10C16.8334 9.44772 16.3857 9 15.8334 9H11.0001V4.16666Z" fill="#050728"/>
</svg>
