<svg width="24" height="24" viewBox="0 0 24 24" fill="none" xmlns="http://www.w3.org/2000/svg">
<path fill-rule="evenodd" clip-rule="evenodd" d="M16.9957 1.06688C15.4225 1.05321 13.9069 1.65797 12.7753 2.75092L12.765 2.76104L11.045 4.47104C10.6533 4.86043 10.6515 5.49359 11.0408 5.88525C11.4302 6.27691 12.0634 6.27876 12.4551 5.88938L14.1696 4.18476C14.9235 3.45912 15.9318 3.05771 16.9783 3.0668C18.0271 3.07592 19.0304 3.49659 19.772 4.23822C20.5136 4.97986 20.9343 5.98311 20.9434 7.03189C20.9525 8.07794 20.5515 9.08582 19.8264 9.83959L16.8329 12.8331L16.8328 12.8332C16.4273 13.2389 15.9393 13.5526 15.4019 13.7531C14.8644 13.9535 14.2902 14.0361 13.7181 13.9951C13.146 13.9541 12.5894 13.7906 12.086 13.5156C11.5827 13.2406 11.1443 12.8605 10.8008 12.4012C10.47 11.959 9.84328 11.8686 9.40103 12.1994C8.95878 12.5303 8.86844 13.1569 9.19924 13.5992C9.71459 14.2881 10.3721 14.8582 11.1271 15.2707C11.8821 15.6832 12.7171 15.9285 13.5752 15.99C14.4334 16.0515 15.2948 15.9276 16.1009 15.6269C16.9069 15.3262 17.6389 14.8557 18.2471 14.2473L18.2472 14.2472L21.2471 11.2473L21.2593 11.2349C22.3522 10.1033 22.957 8.5877 22.9433 7.01451C22.9297 5.44133 22.2987 3.93646 21.1862 2.82401C20.0738 1.71156 18.5689 1.08055 16.9957 1.06688ZM10.4248 8.01043C9.56662 7.94897 8.70527 8.07279 7.89916 8.37349C7.0931 8.67417 6.36114 9.14468 5.7529 9.7531L5.75277 9.75323L2.7529 12.7531L2.74072 12.7655C1.64777 13.8971 1.043 15.4127 1.05667 16.9859C1.07034 18.5591 1.70136 20.064 2.81381 21.1764C3.92625 22.2889 5.43113 22.9199 7.00431 22.9335C8.57749 22.9472 10.0931 22.3424 11.2247 21.2495L11.2371 21.2373L12.9471 19.5273C13.3376 19.1368 13.3376 18.5036 12.9471 18.1131C12.5566 17.7226 11.9234 17.7226 11.5329 18.1131L9.82937 19.8166C9.0756 20.5417 8.06773 20.9427 7.02169 20.9336C5.9729 20.9245 4.96965 20.5038 4.22802 19.7622C3.48639 19.0206 3.06571 18.0173 3.0566 16.9685C3.04751 15.9225 3.44856 14.9146 4.1736 14.1608L7.16711 11.1673L7.16724 11.1672C7.57275 10.7615 8.06076 10.4478 8.59816 10.2474C9.13557 10.0469 9.70981 9.96434 10.2819 10.0053C10.854 10.0463 11.4106 10.2098 11.914 10.4848C12.4174 10.7598 12.8557 11.1399 13.1992 11.5992C13.53 12.0414 14.1567 12.1318 14.599 11.801C15.0412 11.4702 15.1316 10.8435 14.8008 10.4012C14.2854 9.71227 13.6279 9.14221 12.8729 8.7297C12.1179 8.31719 11.283 8.07189 10.4248 8.01043Z" fill="#E82A45"/>
</svg>
