<svg width="18" height="18" viewBox="0 0 18 18" fill="none" xmlns="http://www.w3.org/2000/svg">
<path fill-rule="evenodd" clip-rule="evenodd" d="M12.749 0.549984C11.5035 0.539162 10.3037 1.01794 9.4078 1.88319L9.39747 1.89331L8.10747 3.17581C7.71581 3.56519 7.71396 4.19835 8.10334 4.59002C8.49273 4.98168 9.12589 4.98352 9.51755 4.59414L10.802 3.31713C11.3202 2.81912 12.0128 2.54366 12.7316 2.54991C13.4526 2.55617 14.1424 2.84539 14.6522 3.35526C15.1621 3.86513 15.4513 4.55487 15.4576 5.27591C15.4638 5.99428 15.1887 6.68646 14.6913 7.20449L12.4479 9.44787L12.4478 9.448C12.169 9.72688 11.8335 9.94255 11.464 10.0804C11.0945 10.2182 10.6998 10.2749 10.3064 10.2468C9.9131 10.2186 9.53043 10.1062 9.18438 9.91711C8.83832 9.72805 8.53697 9.46677 8.30078 9.151C7.96997 8.70875 7.34328 8.6184 6.90103 8.94921C6.45878 9.28002 6.36844 9.9067 6.69924 10.349C7.10722 10.8944 7.62773 11.3457 8.22547 11.6722C8.8232 11.9988 9.48418 12.193 10.1636 12.2417C10.8429 12.2903 11.5249 12.1923 12.163 11.9542C12.8012 11.7162 13.3807 11.3437 13.8622 10.862L16.1121 8.61208L16.1243 8.59969C16.9896 7.70383 17.4683 6.50396 17.4575 5.25853C17.4467 4.0131 16.9471 2.82174 16.0664 1.94105C15.1857 1.06036 13.9944 0.560807 12.749 0.549984ZM7.8364 5.75829C7.15702 5.70963 6.47511 5.80765 5.83694 6.04571C5.19883 6.28375 4.61937 6.65622 4.13785 7.13787L4.13772 7.138L1.88785 9.38787L1.87567 9.40027C1.01042 10.2961 0.531643 11.496 0.542465 12.7414C0.553288 13.9869 1.05284 15.1782 1.93353 16.0589C2.81422 16.9396 4.00558 17.4391 5.25101 17.45C6.49645 17.4608 7.69631 16.982 8.59217 16.1168L8.60456 16.1046L9.88706 14.8221C10.2776 14.4316 10.2776 13.7984 9.88706 13.4079C9.49654 13.0174 8.86337 13.0174 8.47285 13.4079L7.19697 14.6838C6.67893 15.1812 5.98676 15.4563 5.26839 15.45C4.54735 15.4438 3.85761 15.1546 3.34774 14.6447C2.83787 14.1348 2.54866 13.4451 2.54239 12.724C2.53615 12.0057 2.81126 11.3135 3.30868 10.7955L5.55206 8.55209L5.55219 8.55196C5.83098 8.27307 6.16648 8.0574 6.53595 7.91958C6.90542 7.78176 7.3002 7.72501 7.69353 7.75318C8.08686 7.78135 8.46953 7.89378 8.81559 8.08284C9.16164 8.27191 9.46299 8.53319 9.69919 8.84896C10.03 9.29121 10.6567 9.38155 11.0989 9.05075C11.5412 8.71994 11.6315 8.09325 11.3007 7.651C10.8927 7.10558 10.3722 6.65428 9.7745 6.32771C9.17676 6.00114 8.51579 5.80694 7.8364 5.75829Z" fill="#4A4D61"/>
</svg>
