<svg width="18" height="18" viewBox="0 0 18 18" fill="none" xmlns="http://www.w3.org/2000/svg">
<path fill-rule="evenodd" clip-rule="evenodd" d="M3.75 3.25C3.61739 3.25 3.49021 3.30268 3.39645 3.39645C3.30268 3.49021 3.25 3.61739 3.25 3.75V14.25C3.25 14.3826 3.30268 14.5098 3.39645 14.6036C3.49022 14.6973 3.61739 14.75 3.75 14.75H4.25001V9.75001C4.25001 9.19773 4.69773 8.75001 5.25001 8.75001H12.75C13.3023 8.75001 13.75 9.19773 13.75 9.75001V14.75H14.25C14.3826 14.75 14.5098 14.6973 14.6036 14.6036C14.6973 14.5098 14.75 14.3826 14.75 14.25V6.41421L11.5858 3.25H6.25001V5H11.25C11.8023 5 12.25 5.44772 12.25 6C12.25 6.55229 11.8023 7 11.25 7H5.25001C4.69773 7 4.25001 6.55229 4.25001 6V3.25H3.75ZM5.25001 1.25H3.75C3.08696 1.25 2.45107 1.51339 1.98223 1.98223C1.51339 2.45107 1.25 3.08696 1.25 3.75V14.25C1.25 14.913 1.51339 15.5489 1.98223 16.0178C2.45107 16.4866 3.08696 16.75 3.75 16.75H5.24538L5.25001 16.75L5.25464 16.75H12.7454L12.75 16.75L12.7546 16.75H14.25C14.913 16.75 15.5489 16.4866 16.0178 16.0178C16.4866 15.5489 16.75 14.913 16.75 14.25V6C16.75 5.73478 16.6446 5.48043 16.4571 5.29289L12.7071 1.54289C12.5196 1.35536 12.2652 1.25 12 1.25H5.25001ZM6.25001 14.75H11.75V10.75H6.25001V14.75Z" fill="white"/>
</svg>
