<svg width="25" height="24" viewBox="0 0 25 24" fill="none" xmlns="http://www.w3.org/2000/svg">
<path fill-rule="evenodd" clip-rule="evenodd" d="M5.32504 10.9994C5.32504 7.46887 8.18713 4.60678 11.7177 4.60678C15.2483 4.60678 18.1104 7.46887 18.1104 10.9994C18.1104 12.7089 17.4394 14.2616 16.3464 15.4087C16.3067 15.4414 16.2682 15.4764 16.231 15.5135C16.1939 15.5506 16.159 15.5891 16.1263 15.6287C14.9793 16.7214 13.4268 17.3921 11.7177 17.3921C8.18713 17.3921 5.32504 14.53 5.32504 10.9994ZM17.2789 18.8345C15.7094 19.9506 13.7902 20.6068 11.7177 20.6068C6.41171 20.6068 2.11035 16.3054 2.11035 10.9994C2.11035 5.69344 6.41171 1.39209 11.7177 1.39209C17.0237 1.39209 21.325 5.69344 21.325 10.9994C21.325 13.0723 20.6686 14.9919 19.5522 16.5615L22.8541 19.8635C23.4818 20.4912 23.4818 21.5089 22.8541 22.1367C22.2264 22.7644 21.2087 22.7644 20.581 22.1367L17.2789 18.8345Z" fill="#050728"/>
</svg>
