<svg width="39" height="39" viewBox="0 0 39 39" fill="none" xmlns="http://www.w3.org/2000/svg">
<g clip-path="url(#clip0_525_65601)">
<path d="M19.4271 24.4614C22.1094 24.4614 24.2838 22.3348 24.2838 19.7114C24.2838 17.0881 22.1094 14.9614 19.4271 14.9614C16.7448 14.9614 14.5703 17.0881 14.5703 19.7114C14.5703 22.3348 16.7448 24.4614 19.4271 24.4614Z" stroke="#E82A45" stroke-width="3.5" stroke-linecap="round" stroke-linejoin="round"/>
<path d="M31.4062 24.4616C31.1907 24.9391 31.1264 25.4689 31.2216 25.9825C31.3168 26.4961 31.5672 26.9701 31.9404 27.3433L32.0376 27.4383C32.3386 27.7324 32.5774 28.0816 32.7404 28.466C32.9033 28.8505 32.9872 29.2625 32.9872 29.6787C32.9872 30.0948 32.9033 30.5069 32.7404 30.8913C32.5774 31.2757 32.3386 31.625 32.0376 31.9191C31.7368 32.2135 31.3798 32.4471 30.9867 32.6064C30.5936 32.7658 30.1723 32.8478 29.7468 32.8478C29.3213 32.8478 28.9 32.7658 28.5069 32.6064C28.1138 32.4471 27.7567 32.2135 27.456 31.9191L27.3589 31.8241C26.9773 31.4591 26.4927 31.2142 25.9676 31.1211C25.4424 31.028 24.9008 31.0908 24.4125 31.3016C23.9336 31.5023 23.5253 31.8356 23.2376 32.2604C22.95 32.6851 22.7956 33.1829 22.7936 33.6924V33.9616C22.7936 34.8014 22.4524 35.6069 21.8452 36.2008C21.238 36.7946 20.4145 37.1283 19.5557 37.1283C18.697 37.1283 17.8734 36.7946 17.2662 36.2008C16.659 35.6069 16.3179 34.8014 16.3179 33.9616V33.8191C16.3054 33.295 16.1319 32.7867 15.8201 32.3604C15.5083 31.934 15.0725 31.6092 14.5695 31.4283C14.0812 31.2175 13.5395 31.1546 13.0144 31.2477C12.4892 31.3409 12.0046 31.5857 11.6231 31.9508L11.5259 32.0458C11.2252 32.3402 10.8681 32.5737 10.475 32.7331C10.082 32.8925 9.66065 32.9745 9.23515 32.9745C8.80965 32.9745 8.38832 32.8925 7.99526 32.7331C7.60219 32.5737 7.2451 32.3402 6.94439 32.0458C6.64335 31.7517 6.40453 31.4024 6.24159 31.018C6.07865 30.6336 5.99478 30.2215 5.99478 29.8053C5.99478 29.3892 6.07865 28.9771 6.24159 28.5927C6.40453 28.2083 6.64335 27.859 6.94439 27.5649L7.04153 27.4699C7.41474 27.0968 7.66511 26.6228 7.76033 26.1092C7.85555 25.5956 7.79127 25.0658 7.57577 24.5883C7.37055 24.12 7.0298 23.7206 6.59546 23.4392C6.16112 23.1579 5.65215 23.007 5.13121 23.0049H4.85599C3.99727 23.0049 3.17371 22.6713 2.5665 22.0774C1.95929 21.4836 1.61816 20.6781 1.61816 19.8383C1.61816 18.9984 1.95929 18.1929 2.5665 17.5991C3.17371 17.0052 3.99727 16.6716 4.85599 16.6716H5.00169C5.53755 16.6593 6.05723 16.4897 6.4932 16.1847C6.92916 15.8798 7.26124 15.4536 7.44625 14.9616C7.66176 14.484 7.72604 13.9543 7.63082 13.4407C7.53559 12.927 7.28523 12.4531 6.91201 12.0799L6.81488 11.9849C6.51384 11.6908 6.27502 11.3416 6.11208 10.9571C5.94913 10.5727 5.86527 10.1607 5.86527 9.7445C5.86527 9.32836 5.94913 8.91629 6.11208 8.53186C6.27502 8.14743 6.51384 7.79819 6.81488 7.50409C7.11558 7.20966 7.47268 6.97609 7.86575 6.81673C8.25881 6.65737 8.68014 6.57535 9.10564 6.57535C9.53114 6.57535 9.95247 6.65737 10.3455 6.81673C10.7386 6.97609 11.0957 7.20966 11.3964 7.50409L11.4935 7.59909C11.8751 7.9641 12.3597 8.20897 12.8849 8.3021C13.41 8.39523 13.9517 8.33235 14.44 8.12159H14.5695C15.0483 7.92088 15.4567 7.58762 15.7443 7.16282C16.0319 6.73803 16.1863 6.24025 16.1884 5.73076V5.46159C16.1884 4.62174 16.5295 3.81628 17.1367 3.22242C17.7439 2.62855 18.5675 2.29492 19.4262 2.29492C20.2849 2.29492 21.1085 2.62855 21.7157 3.22242C22.3229 3.81628 22.664 4.62174 22.664 5.46159V5.60409C22.6661 6.11358 22.8205 6.61137 23.1081 7.03616C23.3958 7.46095 23.8041 7.79421 24.283 7.99492C24.7712 8.20569 25.3129 8.26856 25.8381 8.17543C26.3632 8.0823 26.8478 7.83744 27.2294 7.47242L27.3265 7.37742C27.6272 7.083 27.9843 6.84943 28.3774 6.69007C28.7704 6.53071 29.1918 6.44868 29.6173 6.44868C30.0428 6.44868 30.4641 6.53071 30.8572 6.69007C31.2502 6.84943 31.6073 7.083 31.908 7.37742C32.2091 7.67152 32.4479 8.02077 32.6108 8.40519C32.7738 8.78962 32.8577 9.20169 32.8577 9.61784C32.8577 10.034 32.7738 10.4461 32.6108 10.8305C32.4479 11.2149 32.2091 11.5642 31.908 11.8583L31.8109 11.9533C31.4377 12.3264 31.1873 12.8004 31.0921 13.314C30.9969 13.8276 31.0612 14.3574 31.2767 14.8349V14.9616C31.4819 15.4299 31.8226 15.8293 32.257 16.1106C32.6913 16.3919 33.2003 16.5429 33.7212 16.5449H33.9964C34.8552 16.5449 35.6787 16.8786 36.2859 17.4724C36.8931 18.0663 37.2343 18.8717 37.2343 19.7116C37.2343 20.5514 36.8931 21.3569 36.2859 21.9508C35.6787 22.5446 34.8552 22.8783 33.9964 22.8783H33.8507C33.3298 22.8803 32.8208 23.0313 32.3865 23.3126C31.9521 23.5939 31.6114 23.9933 31.4062 24.4616V24.4616Z" stroke="#E82A45" stroke-width="3.5" stroke-linecap="round" stroke-linejoin="round"/>
</g>
<defs>
<clipPath id="clip0_525_65601">
<rect width="38.8539" height="38" fill="white" transform="translate(0 0.711426)"/>
</clipPath>
</defs>
</svg>
