<svg width="17" height="17" viewBox="0 0 17 17" fill="none" xmlns="http://www.w3.org/2000/svg">
<path fill-rule="evenodd" clip-rule="evenodd" d="M3.20152 1.86035C3.7538 1.86035 4.20152 2.30807 4.20152 2.86035V7.48795C4.20152 8.04023 3.7538 8.48795 3.20152 8.48795C2.64923 8.48795 2.20152 8.04023 2.20152 7.48795V2.86035C2.20152 2.30807 2.64923 1.86035 3.20152 1.86035ZM2.20152 11.1322V14.7598C2.20152 15.312 2.64923 15.7598 3.20152 15.7598C3.7538 15.7598 4.20152 15.312 4.20152 14.7598V11.1322H5.18477C5.73706 11.1322 6.18477 10.6844 6.18477 10.1322C6.18477 9.57987 5.73706 9.13216 5.18477 9.13216H3.20152H1.21826C0.665977 9.13216 0.218262 9.57987 0.218262 10.1322C0.218262 10.6844 0.665977 11.1322 1.21826 11.1322H2.20152ZM9.49007 8.81012C9.49007 8.25783 9.04236 7.81012 8.49007 7.81012C7.93779 7.81012 7.49007 8.25783 7.49007 8.81012V14.7599C7.49007 15.3122 7.93779 15.7599 8.49007 15.7599C9.04236 15.7599 9.49007 15.3122 9.49007 14.7599V8.81012ZM8.49007 1.86035C9.04236 1.86035 9.49007 2.30807 9.49007 2.86035V5.16565H10.4733C11.0256 5.16565 11.4733 5.61336 11.4733 6.16565C11.4733 6.71793 11.0256 7.16565 10.4733 7.16565H8.50634L8.49007 7.16578L8.4738 7.16565H6.50681C5.95453 7.16565 5.50681 6.71793 5.50681 6.16565C5.50681 5.61336 5.95453 5.16565 6.50681 5.16565H7.49007V2.86035C7.49007 2.30807 7.93779 1.86035 8.49007 1.86035ZM13.7786 10.4546H15.7619C16.3142 10.4546 16.7619 10.9023 16.7619 11.4546C16.7619 12.0069 16.3142 12.4546 15.7619 12.4546H14.7786V14.76C14.7786 15.3123 14.3309 15.76 13.7786 15.76C13.2263 15.76 12.7786 15.3123 12.7786 14.76V12.4546H11.7954C11.2431 12.4546 10.7954 12.0069 10.7954 11.4546C10.7954 10.9023 11.2431 10.4546 11.7954 10.4546H13.7786ZM13.7786 1.86035C14.3309 1.86035 14.7786 2.30807 14.7786 2.86035V8.81012C14.7786 9.3624 14.3309 9.81012 13.7786 9.81012C13.2263 9.81012 12.7786 9.3624 12.7786 8.81012V2.86035C12.7786 2.30807 13.2263 1.86035 13.7786 1.86035Z" fill="#333333"/>
</svg>
