<svg width="14" height="14" viewBox="0 0 14 14" fill="none" xmlns="http://www.w3.org/2000/svg">
<path fill-rule="evenodd" clip-rule="evenodd" d="M5.91891 0.455678C6.24774 0.266354 6.62053 0.166695 7 0.166695C7.37946 0.166695 7.75226 0.266354 8.08109 0.455678L8.08333 0.456973L12.1628 2.78809L12.1667 2.7903L12.1667 2.79031C12.4242 2.93901 12.6476 3.13869 12.8238 3.3762C12.8743 3.43044 12.9196 3.49119 12.9583 3.55811C12.9908 3.61436 13.0173 3.67245 13.0378 3.73163C13.1769 4.02225 13.2497 4.3409 13.25 4.66447L13.25 4.6655V9.33217L13.25 9.33319C13.2496 9.71315 13.1493 10.0863 12.9592 10.4153C12.769 10.7442 12.4957 11.0174 12.1667 11.2074L12.1628 11.2096L12.1628 11.2096L8.08333 13.5407L8.0812 13.5419C7.87133 13.6628 7.64355 13.7471 7.40756 13.7923C7.28308 13.8479 7.14515 13.8788 7 13.8788C6.85485 13.8788 6.71692 13.8479 6.59244 13.7923C6.35645 13.7471 6.12867 13.6628 5.9188 13.5419L5.91667 13.5407L1.83719 11.2096L1.83333 11.2074C1.50428 11.0174 1.23098 10.7442 1.04083 10.4153C0.850689 10.0863 0.75039 9.71315 0.75 9.33319L0.75 9.33217V4.6655L0.75 4.66447C0.750334 4.33981 0.823615 4.02009 0.963568 3.72869C0.983981 3.67052 1.01009 3.61342 1.04208 3.55811C1.08031 3.49203 1.12494 3.43196 1.17474 3.37823C1.35108 3.13983 1.57503 2.93944 1.83333 2.79031L1.83719 2.78808L1.83719 2.78809L5.91891 0.455678ZM8 11.2848L11.1667 9.47531L11.1677 9.4747C11.1926 9.46011 11.2132 9.43933 11.2276 9.41438C11.2423 9.38907 11.25 9.36037 11.25 9.33114V5.70156L8 7.58157V11.2848ZM6 7.58135V11.2848L2.83333 9.47531L2.83229 9.4747C2.80744 9.46011 2.7868 9.43933 2.77237 9.41438C2.75779 9.38915 2.75008 9.36055 2.75 9.33143V5.70134L6 7.58135ZM7.08719 2.19124L10.2247 3.98412L7.00019 5.84941L3.77546 3.98401L6.91281 2.19124L6.91281 2.19125L6.91667 2.18902C6.942 2.1744 6.97074 2.16669 7 2.16669C7.02926 2.16669 7.058 2.1744 7.08333 2.18902L7.08333 2.18903L7.08719 2.19124Z" fill="#4A4D61"/>
</svg>
