<svg width="14" height="14" viewBox="0 0 14 14" fill="none" xmlns="http://www.w3.org/2000/svg">
<path fill-rule="evenodd" clip-rule="evenodd" d="M4.22871 1.33333L4.22924 1.33333L9.77852 1.33333H9.77905C10.1821 1.33354 10.5771 1.44628 10.9196 1.6588C11.2615 1.87102 11.5376 2.17429 11.7168 2.53453L11.7176 2.53609L13.7183 6.53466C13.7915 6.67366 13.833 6.83199 13.833 6.99999V10.5C13.833 11.0744 13.6049 11.6254 13.1989 12.0318C12.7927 12.4382 12.2418 12.6667 11.6671 12.6667H2.34062C1.76597 12.6667 1.21501 12.4382 0.808899 12.0318C0.402811 11.6254 0.174805 11.0744 0.174805 10.5V7V6.99999C0.174806 6.83198 0.21624 6.67365 0.289446 6.53466L2.29017 2.53609L2.29096 2.53451C2.4702 2.17427 2.74622 1.87101 3.08818 1.6588C3.43064 1.44628 3.82562 1.33354 4.22871 1.33333ZM9.92762 3.4283L11.2144 6H9.33551C9.00103 6 8.68871 6.16722 8.50327 6.44558L7.63429 7.75H6.37346L5.50449 6.44558C5.31905 6.16722 5.00672 6 4.67225 6H2.79336L4.08013 3.4283L3.18583 2.98083L4.0815 3.42557C4.09531 3.39775 4.11655 3.37443 4.14275 3.35818C4.1689 3.34195 4.19899 3.33337 4.22964 3.33333H9.77811C9.80877 3.33337 9.83885 3.34195 9.86501 3.35818C9.8912 3.37443 9.91244 3.39774 9.92626 3.42557L9.92762 3.4283ZM2.1748 10.5V8H4.13685L5.00583 9.30442C5.19126 9.58278 5.50359 9.75 5.83806 9.75H8.16969C8.50416 9.75 8.81649 9.58278 9.00193 9.30442L9.87091 8H11.833V10.5C11.833 10.5444 11.8153 10.5869 11.7841 10.6181C11.753 10.6493 11.7109 10.6667 11.6671 10.6667H2.34062C2.29688 10.6667 2.25478 10.6493 2.22363 10.6181C2.19245 10.5869 2.1748 10.5444 2.1748 10.5ZM5.24911 4.08333C4.92695 4.08333 4.66578 4.3445 4.66578 4.66667C4.66578 4.98883 4.92694 5.25 5.24911 5.25H8.74911C9.07128 5.25 9.33244 4.98883 9.33244 4.66667C9.33244 4.3445 9.07128 4.08333 8.74911 4.08333H5.24911Z" fill="#4A4D61"/>
</svg>
