<svg width="17" height="17" viewBox="0 0 17 17" fill="none" xmlns="http://www.w3.org/2000/svg">
<path fill-rule="evenodd" clip-rule="evenodd" d="M2.95881 11.8366C2.51989 11.8366 2.16406 11.4807 2.16406 11.0418L2.16406 5.74348C2.16406 5.30455 2.51988 4.94873 2.95881 4.94873C3.39774 4.94873 3.75356 5.30455 3.75356 5.74348L3.75356 10.2471H5.47539L5.47539 8.39265C5.47539 7.95372 5.83122 7.5979 6.27014 7.5979C6.70907 7.5979 7.06489 7.95372 7.06489 8.39265L7.06489 10.2471H8.78711L8.78711 8.39265C8.78711 7.95372 9.14293 7.5979 9.58186 7.5979C10.0208 7.5979 10.3766 7.95372 10.3766 8.39265V10.2471H12.0984L12.0984 5.74348C12.0984 5.30455 12.4543 4.94873 12.8932 4.94873C13.3321 4.94873 13.6879 5.30455 13.6879 5.74348V10.2471H14.8801C15.319 10.2471 15.6748 10.6029 15.6748 11.0418C15.6748 11.4807 15.319 11.8366 14.8801 11.8366H12.8932H9.58186H6.27014H2.95881Z" fill="#5C5D82"/>
</svg>
