<svg width="20" height="20" viewBox="0 0 20 20" fill="none" xmlns="http://www.w3.org/2000/svg">
<path fill-rule="evenodd" clip-rule="evenodd" d="M7.86192 2.86192C7.98694 2.73689 8.15651 2.66666 8.33332 2.66666H11.6667C11.8435 2.66666 12.013 2.73689 12.1381 2.86192C12.2631 2.98694 12.3333 3.15651 12.3333 3.33332V3.99999H7.66666V3.33332C7.66666 3.15651 7.73689 2.98694 7.86192 2.86192ZM14.3333 3.33332V3.99999H15.8333C15.8348 3.99999 15.8363 3.99999 15.8378 4H17.5C18.0523 4 18.5 4.44772 18.5 5C18.5 5.55228 18.0523 6 17.5 6H16.8333V16.6667C16.8333 17.3739 16.5524 18.0522 16.0523 18.5523C15.5522 19.0524 14.8739 19.3333 14.1667 19.3333H5.83332C5.12608 19.3333 4.4478 19.0524 3.9477 18.5523C3.44761 18.0522 3.16666 17.3739 3.16666 16.6667V6H2.5C1.94772 6 1.5 5.55228 1.5 5C1.5 4.44772 1.94772 4 2.5 4H4.16213C4.16364 3.99999 4.16515 3.99999 4.16666 3.99999H5.66666V3.33332C5.66666 2.62608 5.94761 1.9478 6.44771 1.44771C6.9478 0.947608 7.62608 0.666656 8.33332 0.666656H11.6667C12.3739 0.666656 13.0522 0.947608 13.5523 1.44771C14.0524 1.9478 14.3333 2.62608 14.3333 3.33332ZM5.16666 6V16.6667C5.16666 16.8435 5.23689 17.013 5.36192 17.1381C5.48694 17.2631 5.65651 17.3333 5.83332 17.3333H14.1667C14.3435 17.3333 14.513 17.2631 14.6381 17.1381C14.7631 17.013 14.8333 16.8435 14.8333 16.6667V6H5.16666Z" fill="#050728"/>
</svg>
