<svg width="25" height="25" viewBox="0 0 25 25" fill="none" xmlns="http://www.w3.org/2000/svg">
<path fill-rule="evenodd" clip-rule="evenodd" d="M10.5727 4.3242C10.6196 4.27732 10.6832 4.25098 10.7495 4.25098H14.7495C14.8158 4.25098 14.8794 4.27732 14.9263 4.3242C14.9732 4.37108 14.9995 4.43467 14.9995 4.50098V4.75085H10.4995V4.50098C10.4995 4.43467 10.5259 4.37108 10.5727 4.3242ZM6.99951 4.75085V4.50098C6.99951 3.50641 7.3946 2.55259 8.09786 1.84933C8.80112 1.14606 9.75495 0.750977 10.7495 0.750977H14.7495C15.7441 0.750977 16.6979 1.14606 17.4012 1.84933C18.1044 2.55259 18.4995 3.50641 18.4995 4.50098V4.75085H21.75C22.7165 4.75085 23.5 5.53436 23.5 6.50085C23.5 7.46735 22.7165 8.25085 21.75 8.25085H21.4995V20.501C21.4995 21.4955 21.1044 22.4494 20.4012 23.1526C19.6979 23.8559 18.7441 24.251 17.7495 24.251H7.74951C6.75495 24.251 5.80112 23.8559 5.09786 23.1526C4.3946 22.4494 3.99951 21.4955 3.99951 20.501V8.25085H3.75C2.7835 8.25085 2 7.46735 2 6.50085C2 5.53436 2.7835 4.75085 3.75 4.75085H5.75H6.99951ZM8.74951 8.25098H16.7495H17.9995V20.501C17.9995 20.5673 17.9732 20.6309 17.9263 20.6778C17.8794 20.7246 17.8158 20.751 17.7495 20.751H7.74951C7.68321 20.751 7.61962 20.7246 7.57273 20.6778C7.52585 20.6309 7.49951 20.5673 7.49951 20.501V8.25098H8.74951Z" fill="#050728"/>
</svg>
