<svg width="18" height="18" viewBox="0 0 18 18" fill="none" xmlns="http://www.w3.org/2000/svg">
<path fill-rule="evenodd" clip-rule="evenodd" d="M7.14644 2.64643C7.2402 2.55266 7.36738 2.49998 7.49999 2.49998H10.5C10.6326 2.49998 10.7598 2.55266 10.8535 2.64643C10.9473 2.7402 11 2.86738 11 2.99998V3.49999H6.99999V2.99998C6.99999 2.86738 7.05267 2.7402 7.14644 2.64643ZM13 2.99998V3.49999H14.25L14.2545 3.5H15.75C16.3023 3.5 16.75 3.94771 16.75 4.5C16.75 5.05228 16.3023 5.5 15.75 5.5H15.25V15C15.25 15.663 14.9866 16.2989 14.5178 16.7678C14.0489 17.2366 13.413 17.5 12.75 17.5H5.24999C4.58695 17.5 3.95106 17.2366 3.48222 16.7678C3.01338 16.2989 2.74999 15.663 2.74999 15V5.5H2.25C1.69772 5.5 1.25 5.05228 1.25 4.5C1.25 3.94771 1.69772 3.5 2.25 3.5H3.74547L3.74999 3.49999H4.99999V2.99998C4.99999 2.33694 5.26338 1.70106 5.73222 1.23222C6.20106 0.763377 6.83695 0.499985 7.49999 0.499985H10.5C11.163 0.499985 11.7989 0.763377 12.2678 1.23222C12.7366 1.70106 13 2.33694 13 2.99998ZM4.74999 5.5V15C4.74999 15.1326 4.80267 15.2598 4.89644 15.3535C4.9902 15.4473 5.11738 15.5 5.24999 15.5H12.75C12.8826 15.5 13.0098 15.4473 13.1035 15.3535C13.1973 15.2598 13.25 15.1326 13.25 15V5.5H4.74999ZM7.50001 7.24999C8.05229 7.24999 8.50001 7.6977 8.50001 8.24999V12.75C8.50001 13.3023 8.05229 13.75 7.50001 13.75C6.94773 13.75 6.50001 13.3023 6.50001 12.75V8.24999C6.50001 7.6977 6.94773 7.24999 7.50001 7.24999ZM11.5 8.24999C11.5 7.6977 11.0523 7.24999 10.5 7.24999C9.94771 7.24999 9.49999 7.6977 9.49999 8.24999V12.75C9.49999 13.3023 9.94771 13.75 10.5 13.75C11.0523 13.75 11.5 13.3023 11.5 12.75V8.24999Z" fill="#5C5D82"/>
</svg>
