<svg width="18" height="18" viewBox="0 0 18 18" fill="none" xmlns="http://www.w3.org/2000/svg">
<path fill-rule="evenodd" clip-rule="evenodd" d="M7.14644 2.64645C7.24021 2.55268 7.36738 2.5 7.49999 2.5H10.5C10.6326 2.5 10.7598 2.55268 10.8535 2.64645C10.9473 2.74022 11 2.86739 11 3V3.5H6.99999V3C6.99999 2.86739 7.05267 2.74022 7.14644 2.64645ZM13 3V3.5H14.25L14.2545 3.50001H15.75C16.3023 3.50001 16.75 3.94773 16.75 4.50001C16.75 5.0523 16.3023 5.50001 15.75 5.50001H15.25V15C15.25 15.663 14.9866 16.2989 14.5178 16.7678C14.0489 17.2366 13.413 17.5 12.75 17.5H5.24999C4.58695 17.5 3.95106 17.2366 3.48222 16.7678C3.01338 16.2989 2.74999 15.663 2.74999 15V5.50001H2.25C1.69772 5.50001 1.25 5.0523 1.25 4.50001C1.25 3.94773 1.69772 3.50001 2.25 3.50001H3.74547L3.74999 3.5H4.99999V3C4.99999 2.33696 5.26338 1.70107 5.73222 1.23223C6.20106 0.763392 6.83695 0.5 7.49999 0.5H10.5C11.163 0.5 11.7989 0.763392 12.2678 1.23223C12.7366 1.70107 13 2.33696 13 3ZM4.74999 5.50001V15C4.74999 15.1326 4.80267 15.2598 4.89644 15.3536C4.9902 15.4473 5.11738 15.5 5.24999 15.5H12.75C12.8826 15.5 13.0098 15.4473 13.1035 15.3536C13.1973 15.2598 13.25 15.1326 13.25 15V5.50001H4.74999ZM7.50001 7.25C8.05229 7.25 8.50001 7.69772 8.50001 8.25V12.75C8.50001 13.3023 8.05229 13.75 7.50001 13.75C6.94773 13.75 6.50001 13.3023 6.50001 12.75V8.25C6.50001 7.69772 6.94773 7.25 7.50001 7.25ZM11.5 8.25C11.5 7.69772 11.0523 7.25 10.5 7.25C9.94771 7.25 9.49999 7.69772 9.49999 8.25V12.75C9.49999 13.3023 9.94771 13.75 10.5 13.75C11.0523 13.75 11.5 13.3023 11.5 12.75V8.25Z" fill="white"/>
</svg>
