<svg width="9" height="9" viewBox="0 0 9 9" fill="none" xmlns="http://www.w3.org/2000/svg">
<path fill-rule="evenodd" clip-rule="evenodd" d="M5.20704 0.626145C4.81651 0.235621 4.18335 0.235621 3.79282 0.626145C3.4023 1.01667 3.4023 1.64983 3.79282 2.04036L5.25238 3.49992H1.33325C0.780967 3.49992 0.333252 3.94763 0.333252 4.49992C0.333252 5.0522 0.780967 5.49992 1.33325 5.49992H5.25238L3.79282 6.95948C3.4023 7.35 3.4023 7.98317 3.79282 8.37369C4.18335 8.76422 4.81651 8.76422 5.20704 8.37369L8.3737 5.20703C8.38691 5.19382 8.39971 5.18028 8.41209 5.16643C8.56317 4.99756 8.65772 4.77705 8.66599 4.53465C8.66639 4.52309 8.6666 4.51152 8.6666 4.49992C8.6666 4.48832 8.66639 4.47674 8.66599 4.46519C8.65767 4.22133 8.56203 3.99963 8.40936 3.83037C8.39783 3.81757 8.38594 3.80505 8.3737 3.79281L5.20704 0.626145Z" fill="#E82A45"/>
</svg>
