<svg width="17" height="17" viewBox="0 0 17 17" fill="none" xmlns="http://www.w3.org/2000/svg">
<path fill-rule="evenodd" clip-rule="evenodd" d="M8.13618 2.98602C5.65345 2.98602 3.6408 4.99867 3.6408 7.4814C3.6408 9.96413 5.65345 11.9768 8.13618 11.9768C9.34395 11.9768 10.4405 11.5005 11.2482 10.7255C11.2673 10.7013 11.288 10.6779 11.3104 10.6556C11.3327 10.6332 11.3561 10.6125 11.3803 10.5934C12.1553 9.78569 12.6316 8.68916 12.6316 7.4814C12.6316 4.99867 10.6189 2.98602 8.13618 2.98602ZM8.13618 13.5634C9.5297 13.5634 10.8137 13.0947 11.8393 12.3064L14.1861 14.6532C14.4959 14.963 14.9982 14.963 15.308 14.6532C15.6178 14.3434 15.6178 13.8411 15.308 13.5313L12.9612 11.1845C13.7495 10.159 14.2182 8.87491 14.2182 7.4814C14.2182 4.12241 11.4952 1.39941 8.13618 1.39941C4.7772 1.39941 2.0542 4.12241 2.0542 7.4814C2.0542 10.8404 4.7772 13.5634 8.13618 13.5634ZM6.1528 6.68797C5.71467 6.68797 5.3595 7.04314 5.3595 7.48127C5.3595 7.9194 5.71467 8.27457 6.1528 8.27457H10.1193C10.5574 8.27457 10.9126 7.9194 10.9126 7.48127C10.9126 7.04314 10.5574 6.68797 10.1193 6.68797H6.1528Z" fill="#4A4D61"/>
</svg>
