<svg width="16" height="17" viewBox="0 0 16 17" fill="none" xmlns="http://www.w3.org/2000/svg">
<path fill-rule="evenodd" clip-rule="evenodd" d="M2.82244 7.4814C2.82244 4.99867 4.83509 2.98602 7.31782 2.98602C9.80055 2.98602 11.8132 4.99867 11.8132 7.4814C11.8132 8.68916 11.3369 9.78569 10.5619 10.5934C10.5377 10.6125 10.5144 10.6332 10.492 10.6556C10.4697 10.6779 10.4489 10.7013 10.4298 10.7255C9.62211 11.5005 8.52559 11.9768 7.31782 11.9768C4.83509 11.9768 2.82244 9.96413 2.82244 7.4814ZM11.021 12.3064C9.99539 13.0947 8.71134 13.5634 7.31782 13.5634C3.95884 13.5634 1.23584 10.8404 1.23584 7.4814C1.23584 4.12241 3.95884 1.39941 7.31782 1.39941C10.6768 1.39941 13.3998 4.12241 13.3998 7.4814C13.3998 8.87491 12.9312 10.159 12.1429 11.1845L14.4896 13.5313C14.7994 13.8411 14.7994 14.3434 14.4896 14.6532C14.1798 14.963 13.6775 14.963 13.3677 14.6532L11.021 12.3064ZM7.3177 4.70471C7.75582 4.70471 8.111 5.05988 8.111 5.49801V6.68797H9.30095C9.73908 6.68797 10.0943 7.04314 10.0943 7.48127C10.0943 7.9194 9.73908 8.27457 9.30095 8.27457H8.111V9.46453C8.111 9.90265 7.75582 10.2578 7.3177 10.2578C6.87957 10.2578 6.52439 9.90265 6.52439 9.46453V8.27457H5.33444C4.89631 8.27457 4.54114 7.9194 4.54114 7.48127C4.54114 7.04314 4.89631 6.68797 5.33444 6.68797H6.52439V5.49801C6.52439 5.05988 6.87957 4.70471 7.3177 4.70471Z" fill="#4A4D61"/>
</svg>
